/* XPM */
static char *death0[] = {
/* columns rows colors chars-per-pixel */
"96 96 58 1 ",
"  c black",
". c #00001C",
"X c gray11",
"o c None",
"O c #00002C",
"+ c #000034",
"@ c #202020",
"# c #2C2C2C",
"$ c gray22",
"% c #543C1C",
"& c #5C4020",
"* c #6C4824",
"= c #000040",
"- c #00004C",
"; c #000058",
": c #000064",
"> c #000070",
", c #00007C",
"< c #484848",
"1 c gray33",
"2 c #646464",
"3 c gray44",
"4 c #7C7C7C",
"5 c #80502C",
"6 c #885830",
"7 c #905C34",
"8 c #9C6038",
"9 c #A0643C",
"0 c #CC6000",
"q c #A86840",
"w c #B47044",
"e c #BC7848",
"r c #C87C4C",
"t c #9C9C00",
"y c #B4AC00",
"u c #D08050",
"i c #DC8854",
"p c #E88C58",
"a c #F0945C",
"s c #FC9C60",
"d c #FCA470",
"f c #000088",
"g c #000098",
"h c #0000A4",
"j c #0000B0",
"k c #0000BC",
"l c #0000C8",
"z c #0000D4",
"x c #0000E0",
"c c #4040FC",
"v c gray55",
"b c gray66",
"n c #B4B4B4",
"m c #FCB080",
"M c #FCB890",
"N c #FCBC9C",
"B c #FCC4A4",
"V c #FCD4BC",
/* pixels */
"oooooooooooooooooooooooooooooooooooooooooooooooooooooooooooooooooooooooooooooooooooooooooooooooo",
"oooooooooooooooooooooooooooooooooooooooooooooooooooooooooooooooooooooooooooooooooooooooooooooooo",
"oooooooooooooooooooooooooooooooooooooooooooooooooooooooooooooooooooooooooooooooooooooooooooooooo",
"oooooooooooooooooooooooooooooooooooooooooooooooooooooooooooooooooooooooooooooooooooooooooooooooo",
"oooooooooooooooooooooooooooooooooooooooooooooooooooooooooooooooooooooooooooooooooooooooooooooooo",
"oooooooooooooooooooooooooooooooooooooooooooooooooooooooooooooooooooooooooooooooooooooooooooooooo",
"oooooooooooooooooooooooooooooooooooooooooooooooooooooooooooooooooooooooooooooooooooooooooooooooo",
"oooooooooooooooooooooooooooooooooooooooooooooooooooooooooooooooooooooooooooooooooooooooooooooooo",
"oooooooooooooooooooooooooooooooooooooooooooooooooooooooooooooooooooooooooooooooooooooooooooooooo",
"oooooooooooooooooooooooooooooooooooooooooooooooooooooooooooooooooooooooooooooooooooooooooooooooo",
"oooooooooooooooooooooooooooooooooooooooooooooooooooooooooooooooooooooooooooooooooooooooooooooooo",
"oooooooooooooooooooooooooooooooooooooooooooooooooooooooooooooooooooooooooooooooooooooooooooooooo",
"oooooooooooooooooooooooooooooooooooooooooooooooooooooooooooooooooooooooooooooooooooooooooooooooo",
"oooooooooooooooooooooooooooooooooooooooooooooooooooooooooooooooooooooooooooooooooooooooooooooooo",
"oooooooooooooooooooooooooooooooooooooooooooooooooooooooooooooooooooooooooooooooooooooooooooooooo",
"oooooooooooooooooooooooooooooooooooooooooooooooooooooooooooooooooooooooooooooooooooooooooooooooo",
"oooooooooooooooooooooooooooooooooooooooooooooooooooooooooooooooooooooooooooooooooooooooooooooooo",
"oooooooooooooooooooooooooooooooooooooooooooooooooooooooooooooooooooooooooooooooooooooooooooooooo",
"oooooooooooooooooooooooooooooooooooooooooooooooooooooooooooooooooooooooooooooooooooooooooooooooo",
"oooooooooooooooooooooooooooooooooooooooooooooooooooooooooooooooooooooooooooooooooooooooooooooooo",
"oooooooooooooooooooooooooooooooooooooooooooooooooooooooooooooooooooooooooooooooooooooooooooooooo",
"oooooooooooooooooooooooooooooooooooooooooooooooooooooooooooooooooooooooooooooooooooooooooooooooo",
"oooooooooooooooooooooooooooooooooooooooooooooooooooooooooooooooooooooooooooooooooooooooooooooooo",
"oooooooooooooooooooooooooooooooooooooooooooooooooooooooooooooooooooooooooooooooooooooooooooooooo",
"oooooooooooooooooooooooooooooooooooooooooooooooooooooooooooooooooooooooooooooooooooooooooooooooo",
"oooooooooooooooooooooooooooooooooooooooooooooooooooooooooooooooooooooooooooooooooooooooooooooooo",
"oooooooooooooooooooooooooooooooooooooooooooooooooooooooooooooooooooooooooooooooooooooooooooooooo",
"oooooooooooooooooooooooooooooooooooooooooooooooooooooooooooooooooooooooooooooooooooooooooooooooo",
"oooooooooooooooooooooooooooooooooooooooooooooooooooooooooooooooooooooooooooooooooooooooooooooooo",
"oooooooooooooooooooooooooooooooooooooooooooooooooooooooooooooooooooooooooooooooooooooooooooooooo",
"oooooooooooooooooooooooooooooooooooooooooooooooooooooooooooooooooooooooooooooooooooooooooooooooo",
"oooooooooooooooooooooooooooooooooooooooooooooooooooooooooooooooooooooooooooooooooooooooooooooooo",
"oooooooooooooooooooooooooooooooooooooooooooooooooooooooooooooooooooooooooooooooooooooooooooooooo",
"oooooooooooooooooooooooooooooooooooooooooooooooooooooooooooooooooooooooooooooooooooooooooooooooo",
"oooooooooooooooooooooooooooooooooooooooooooooooooooooooooooooooooooooooooooooooooooooooooooooooo",
"oooooooooooooooooooooooooooooooooooooooooooooooooooooooooooooooooooooooooooooooooooooooooooooooo",
"oooooooooooooooooooooooooooooooooooooooooooooooooooooooooooooooooooooooooooooooooooooooooooooooo",
"oooooooooooooooooooooooooooooooooooooooooooooooooooooooooooooooooooooooooooooooooooooooooooooooo",
"oooooooooooooooooooooooooooooooooooooooooooooooooooooooooooooooooooooooooooooooooooooooooooooooo",
"oooooooooooooooooooooooooooooooooooooooooooooooooooooooooooooooooooooooooooooooooooooooooooooooo",
"oooooooooooooooooooooooooooooooooooooooooooooooooooooooooooooooooooooooooooooooooooooooooooooooo",
"oooooooooooooooooooooooooooooooooooooooooooooooooooooooooooooooooooooooooooooooooooooooooooooooo",
"oooooooooooooooooooooooooooooooooooooooooooohxx,= oooooooooooooooooooooooooooooooooooooooooooooo",
"oooooooooooooooooooooooooooooooooooooooooohxx,==   ooooooooooooooooooooooooooooooooooooooooooooo",
"oooooooooooooooooooooooooooooooooooooooooxfff===   ooooooooooooooooooooooooooooooooooooooooooooo",
"oooooooooooooooooooooooooooooooooooooooooffff==     oooooooooooooooooooooooooooooooooooooooooooo",
"ooooooooooooooooooooooooooooooooooooooooofcurdqwrt0 oooooooooooooooooooooooooooooooooooooooooooo",
"ooooooooooooooooooooooooooooooooooooooooo>MBBu6NMy*6oooooooooooooooooooooooooooooooooooooooooooo",
"oooooooooooooooooooooooooooooooooooooooooomNdddmmu96oooooooooooooooooooooooooooooooooooooooooooo",
"oooooooooooooooooooooooooooooooooooooooooodNVVVVa8u6oooooooooooooooooooooooooooooooooooooooooooo",
"oooooooooooooooooooooooooooooooooooooooooodmmmmmwwu6oooooooooooooooooooooooooooooooooooooooooooo",
"oooooooooooooooooooooooooooooooooooooooooodddidpii5ooooooooooooooooooooooooooooooooooooooooooooo",
"oooooooooooooooooooooooooooooooooooooooooooaiuur555 oooooooooooooooooooooooooooooooooooooooooooo",
"ooooooooooooooooooooooooooooooooooooooooo##waaw7q5  oooooooooooooooooooooooooooooooooooooooooooo",
"ooooooooooooooooooooooooooooooooooooooooo##5raa7    ----oooooooooooooooooooooooooooooooooooooooo",
"oooooooooooooooooooooooooooooooooooooooXXb@&5ra 11 :ffff-ooooooooooooooooooooooooooooooooooooooo",
"oooooooooooooooooooooooooooooooooooooo:XXv  &5 :  :ggggg>-oooooooooooooooooooooooooooooooooooooo",
"oooooooooooooooooooooooooooooooooooooj:XXg :  :g::ghhhhf>>-ooooooooooooooooooooooooooooooooooooo",
"oooooooooooooooooooooooooooooooooooojg:XXgggg>gggggggggffg=ooooooooooooooooooooooooooooooooooooo",
"ooooooooooooooooooooooooooooooooooojjg:XX>gg>ggg>>>>gggfggf=oooooooooooooooooooooooooooooooooooo",
"oooooooooooooooooooooooooooooooooojjfggXXX=g>gg,gggg>f;ggg>=+ooooooooooooooooooooooooooooooooooo",
"oooooooooooooooooooooooooooooooooojjfgg:XXX >:gg,>>>>;f2+gg>=ooooooooooooooooooooooooooooooooooo",
"ooooooooooooooooooooooooooooooooojjjf+g,    @@::::=<122 $g>>++oooooooooooooooooooooooooooooooooo",
"oooooooooooooooooooooooooooooooooj>ff++-:=$$22123444321 $>>=++oooooooooooooooooooooooooooooooooo",
"ooooooooooooooooooooooooooooooooo>jj,-+$14444422211<<$$$><>>++oooooooooooooooooooooooooooooooooo",
"ooooooooooooooooooooooooooooooooojxj23444221<<<<<$@@**** >$+@.oooooooooooooooooooooooooooooooooo",
"oooooooooooooooooooooooooooooooooz:234v1<<<$$$@@@@@ 6ie**.#+.ooooooooooooooooooooooooooooooooooo",
"ooooooooooooooooooooooooooooooooof+34n 1$$@$$<@...@@*ei8*.+.oooooooooooooooooooooooooooooooooooo",
"ooooooooooooooooooooooooooooooooo-+,w   $.#1<1$......*88*..ooooooooooooooooooooooooooooooooooooo",
"oooooooooooooooooooooooooooooooooo-9ssp7&.#1<1$...........oooooooooooooooooooooooooooooooooooooo",
"oooooooooooooooooooooooooooooooooooisi9%..+11<#..OOOOO..oooooooooooooooooooooooooooooooooooooooo",
"oooooooooooooooooooooooooooooooooooiss9%...##+..O+===+O..ooooooooooooooooooooooooooooooooooooooo",
"oooooooooooooooooooooooooooooooooooo99*%.......O+=====+O.ooooooooooooooooooooooooooooooooooooooo",
"ooooooooooooooooooooooooooooooooooooooolhf::=..O++++++++.ooooooooooooooooooooooooooooooooooooooo",
"oooooooooooooooooooooooooooooooooooooooo>>-=O...+==;;;;+.ooooooooooooooooooooooooooooooooooooooo",
"ooooooooooooooooooooooooooooooooooooooookh,-=OO.O=;>>>>=+ooooooooooooooooooooooooooooooooooooooo",
"ooooooooooooooooooooooooooooooooooooooohkh,--OO.=;:>ff>;=ooooooooooooooooooooooooooooooooooooooo",
"ooooooooooooooooooooooooooooooooooooooohkhh,-=O.=;:fff>;;ooooooooooooooooooooooooooooooooooooooo",
"oooooooooooooooooooooooooooooooooooooookkhh,-=O.=;;:ffff>;oooooooooooooooooooooooooooooooooooooo",
"oooooooooooooooooooooooooooooooooooooookkhh,--O.=;;>ffff>;oooooooooooooooooooooooooooooooooooooo",
"oooooooooooooooooooooooooooooooooooooookkhh,:-O.O;;>ffff>;oooooooooooooooooooooooooooooooooooooo",
"oooooooooooooooooooooooooooooooooooooohkkhh,:-O.O;=,f::f>;oooooooooooooooooooooooooooooooooooooo",
"oooooooooooooooooooooooooooooooooooooohkhhf,:-O.O;>f::::f>=ooooooooooooooooooooooooooooooooooooo",
"ooooooooooooooooooooooooooooooooooooookxxhh:-OOoo;;>::::>>=ooooooooooooooooooooooooooooooooooooo",
"ooooooooooooooooooooooooooooooooooooookhh,>--=O.o; -::;;;==ooooooooooooooooooooooooooooooooooooo",
"ooooooooooooooooooooooooooooooooooooookh,,--==O.o -;;-;;==oooooooooooooooooooooooooooooooooooooo",
"oooooooooooooooooooooooooooooooooooooo::::-==OOoo ========oooooooooooooooooooooooooooooooooooooo",
"ooooooooooooooooooooooooooooooooooooooo +++..  ooo ++O. @ oooooooooooooooooooooooooooooooooooooo",
"ooooooooooooooooooooooooooooooooooooooo +++..  ooo +=O. @ oooooooooooooooooooooooooooooooooooooo",
"oooooooooooooooooooooooooooooooooooooooo ...   ooo .+O. @ooooooooooooooooooooooooooooooooooooooo",
"ooooooooooooooooooooooooooooooooooooooooo      oooo...  oooooooooooooooooooooooooooooooooooooooo",
"oooooooooooooooooooooooooooooooooooooooooOOO   ooo OO   @ooooooooooooooooooooooooooooooooooooooo",
"ooooooooooooooooooooooooooooooooooooooooO===O   oo O=++  ooooooooooooooooooooooooooooooooooooooo",
"oooooooooooooooooooooooooooooooooooooooo=====   ooO=====  oooooooooooooooooooooooooooooooooooooo",
"oooooooooooooooooooooooooooooooooooooooO====O   ooO====O  oooooooooooooooooooooooooooooooooooooo",
"oooooooooooooooooooooooooooooooooooooooO==OO   oooo OOOO @oooooooooooooooooooooooooooooooooooooo"
};
