/* XPM */
static char *death2[] = {
/* columns rows colors chars-per-pixel */
"96 96 47 1 ",
"  c black",
". c #00001C",
"X c gray11",
"o c None",
"O c #00002C",
"+ c #000034",
"@ c #202020",
"# c #400000",
"$ c #4C0000",
"% c #580000",
"& c #700000",
"* c #7C0000",
"= c #543C1C",
"- c #5C4020",
"; c #6C4824",
": c #000040",
"> c #00004C",
", c #000058",
"< c #000064",
"1 c #000070",
"2 c #00007C",
"3 c #880000",
"4 c #980000",
"5 c #A40000",
"6 c #B00000",
"7 c #E00000",
"8 c #EC0000",
"9 c #FC0000",
"0 c #80502C",
"q c #9C6038",
"w c #A0643C",
"e c #B47044",
"r c #BC7848",
"t c #C87C4C",
"y c #D08050",
"u c #DC8854",
"i c #E88C58",
"p c #F0945C",
"a c #FC9C60",
"s c #000088",
"d c #000098",
"f c #0000A4",
"g c #0000BC",
"h c #4040FC",
"j c #FCB080",
"k c #FCB890",
"l c #FCD4BC",











/* pixels */
"oooooooooooooooooooooooooooooooooooooooooooooooooooooooooooooooooooooooooooooooooooooooooooooooo",
"oooooooooooooooooooooooooooooooooooooooooooooooooooooooooooooooooooooooooooooooooooooooooooooooo",
"oooooooooooooooooooooooooooooooooooooooooooooooooooooooooooooooooooooooooooooooooooooooooooooooo",
"oooooooooooooooooooooooooooooooooooooooooooooooooooooooooooooooooooooooooooooooooooooooooooooooo",
"oooooooooooooooooooooooooooooooooooooooooooooooooooooooooooooooooooooooooooooooooooooooooooooooo",
"oooooooooooooooooooooooooooooooooooooooooooooooooooooooooooooooooooooooooooooooooooooooooooooooo",
"oooooooooooooooooooooooooooooooooooooooooooooooooooooooooooooooooooooooooooooooooooooooooooooooo",
"oooooooooooooooooooooooooooooooooooooooooooooooooooooooooooooooooooooooooooooooooooooooooooooooo",
"oooooooooooooooooooooooooooooooooooooooooooooooooooooooooooooooooooooooooooooooooooooooooooooooo",
"oooooooooooooooooooooooooooooooooooooooooooooooooooooooooooooooooooooooooooooooooooooooooooooooo",
"oooooooooooooooooooooooooooooooooooooooooooooooooooooooooooooooooooooooooooooooooooooooooooooooo",
"oooooooooooooooooooooooooooooooooooooooooooooooooooooooooooooooooooooooooooooooooooooooooooooooo",
"oooooooooooooooooooooooooooooooooooooooooooooooooooooooooooooooooooooooooooooooooooooooooooooooo",
"oooooooooooooooooooooooooooooooooooooooooooooooooooooooooooooooooooooooooooooooooooooooooooooooo",
"oooooooooooooooooooooooooooooooooooooooooooooooooooooooooooooooooooooooooooooooooooooooooooooooo",
"oooooooooooooooooooooooooooooooooooooooooooooooooooooooooooooooooooooooooooooooooooooooooooooooo",
"oooooooooooooooooooooooooooooooooooooooooooooooooooooooooooooooooooooooooooooooooooooooooooooooo",
"oooooooooooooooooooooooooooooooooooooooooooooooooooooooooooooooooooooooooooooooooooooooooooooooo",
"oooooooooooooooooooooooooooooooooooooooooooooooooooooooooooooooooooooooooooooooooooooooooooooooo",
"oooooooooooooooooooooooooooooooooooooooooooooooooooooooooooooooooooooooooooooooooooooooooooooooo",
"oooooooooooooooooooooooooooooooooooooooooooooooooooooooooooooooooooooooooooooooooooooooooooooooo",
"oooooooooooooooooooooooooooooooooooooooooooooooooooooooooooooooooooooooooooooooooooooooooooooooo",
"oooooooooooooooooooooooooooooooooooooooooooooooooooooooooooooooooooooooooooooooooooooooooooooooo",
"oooooooooooooooooooooooooooooooooooooooooooooooooooooooooooooooooooooooooooooooooooooooooooooooo",
"oooooooooooooooooooooooooooooooooooooooooooooooooooooooooooooooooooooooooooooooooooooooooooooooo",
"oooooooooooooooooooooooooooooooooooooooooooooooooooooooooooooooooooooooooooooooooooooooooooooooo",
"oooooooooooooooooooooooooooooooooooooooooooooooooooooooooooooooooooooooooooooooooooooooooooooooo",
"oooooooooooooooooooooooooooooooooooooooooooooooooooooooooooooooooooooooooooooooooooooooooooooooo",
"oooooooooooooooooooooooooooooooooooooooooooooooooooooooooooooooooooooooooooooooooooooooooooooooo",
"oooooooooooooooooooooooooooooooooooooooooooooooooooooooooooooooooooooooooooooooooooooooooooooooo",
"oooooooooooooooooooooooooooooooooooooooooooooooooooooooooooooooooooooooooooooooooooooooooooooooo",
"oooooooooooooooooooooooooooooooooooooooooooooooooooooooooooooooooooooooooooooooooooooooooooooooo",
"oooooooooooooooooooooooooooooooooooooooooooooooooooooooooooooooooooooooooooooooooooooooooooooooo",
"oooooooooooooooooooooooooooooooooooooooooooooooooooooooooooooooooooooooooooooooooooooooooooooooo",
"oooooooooooooooooooooooooooooooooooooooooooooooooooooooooooooooooooooooooooooooooooooooooooooooo",
"oooooooooooooooooooooooooooooooooooooooooooooooooooooooooooooooooooooooooooooooooooooooooooooooo",
"oooooooooooooooooooooooooooooooooooooooooooooooooooooooooooooooooooooooooooooooooooooooooooooooo",
"oooooooooooooooooooooooooooooooooooooooooooooooooooooooooooooooooooooooooooooooooooooooooooooooo",
"oooooooooooooooooooooooooooooooooooooooooooooooooooooooooooooooooooooooooooooooooooooooooooooooo",
"oooooooooooooooooooooooooooooooooooooooooooooooooooooooooooooooooooooooooooooooooooooooooooooooo",
"oooooooooooooooooooooooooooooooooooooooooooooooooooooooooooooooooooooooooooooooooooooooooooooooo",
"oooooooooooooooooooooooooooooooooooooooooooooooooooooooooooooooooooooooooooooooooooooooooooooooo",
"oooooooooooooooooooooooooooooooooooooooooooooooooooooooooooooooooooooooooooooooooooooooooooooooo",
"oooooooooooooooooooooooooooooooooooooooooooooooooooooooooooooooooooooooooooooooooooooooooooooooo",
"oooooooooooooooooooooooooooooooooooooooooooooooooooooooooooooooooooooooooooooooooooooooooooooooo",
"oooooooooooooooooooooooooooooooooooooooooooooooooooooooooooooooooooooooooooooooooooooooooooooooo",
"oooooooooooooooooooooooooooooooooooooooooooooooooooooooooooooooooooooooooooooooooooooooooooooooo",
"oooooooooooooooooooooooooooooooooooooooooooooooooooooooooooooooooooooooooooooooooooooooooooooooo",
"oooooooooooooooooooooooooooooooooooooooooooooooooooooooooooooooooooooooooooooooooooooooooooooooo",
"oooooooooooooooooooooooooooooooooooooooooooooooooooooooooooooooooooooooooooooooooooooooooooooooo",
"oooooooooooooooooooooooooooooooooooooooooooooooooooooooooooooooooooooooooooooooooooooooooooooooo",
"oooooooooooooooooooooooooooooooooooooooooooooooooooooooooooooooooooooooooooooooooooooooooooooooo",
"oooooooooooooooooooooooooooooooooooooooooooooooooooooooooooooooooooooooooooooooooooooooooooooooo",
"oooooooooooooooooooooooooooooooooooooooooo7ooooooooooooooooooooooooooooooooooooooooooooooooooooo",
"ooooooooooooooooooooooooooooooooooooooooooooooooooo7oooooo7ooooooooooooooooooooooooooooooooooooo",
"oooooooooooooooooooooooooooooooooooooooooooooooooooooooooooooooooooooooooooooooooooooooooooooooo",
"ooooooooooooooooooooooooooooooooooooooooooooooo6oooooooooooooooooooooooooooooooooooooooooooooooo",
"oooooooooooooooooooooooooooooooooooooooooooooooooooooooooooooooooooooooooooooooooooooooooooooooo",
"ooooooooooooooooooooooooooooooooooooooooooooo5oooooooooo6ooooooooooooooooooooooooooooooooooooooo",
"ooooooooooooooooooooooooooooooooooooooooooooooo6o*6ooooo6ooooooooooooooooooooooooooooooooooooooo",
"ooooooooooooooooooooooooooooooooooooooooooooooooo**ooo7ooo6ooooooooooooooooooooooooooooooooooooo",
"oooooooooooooooooooooooooooooooooooooooooooo7%oooooooooooooooooooooooooooooooooooooooooooooooooo",
"oooooooooooooooooooooooooooooooooooooooooooo%%ooooooooo47ooooooooooooooooooooooooooooooooooooooo",
"ooooooooooooooooooooooooooooooooooooooooooo5o4o5of:::: 7ooo64ooooooooooooooooooooooooooooooooooo",
"ooooooooooooooooooooooooooooooooooooooooooooo*osss::7  74oo4%ooooooooooooooooooooooooooooooooooo",
"ooooooooooooooooooooooooooooooooooooooooooo8oo9s0ejre0 47o7o4ooooooooooooooooooooooooooooooooooo",
"oooooooooooooooooooooooooooooooooooooooooo7o5oshylll3pp %ooooooooooooooooooooooooooooooooooooooo",
"oooooooooooooooooooooooooooooooooooooooooooo8osk9iiye9p4ddd7oooooooooooooooooooooooooooooooooooo",
"ooooooooooooooooooooooooooooooooooooooooooo7*:7::333:d4%4$dddddooooooooooooooooooooooooooooooooo",
"ooooooooooooooooooooooooooooooooooooooooosd75&694$$::$$$$$$ssssddooooooooooooooooooooooooooooooo",
"ooooooooooooooooooooooooooooooooooooooooddd&&&&794d::::dds1111112ddooooooooooooooooooooooooooooo",
"oooooooooooooooooooooooooooooooooooooo1ddd111s47         1,,>>>>111uuuoooooooooooooooooooooooooo",
"ooooooooooooooooooooooooooooooooooooo1d1s1>1>1 9944#:11::  ,,::>,<11qquooooooooooooooooooooooooo",
"ooooooooooooooooooooooooooooooooooo1ddds1>::: #4&&##:ssss:: 1:::>,,,qqeuoooooooooooooooooooooooo",
"ooooooooooooooooooooooooooooooooooddds21.:...:##,,,,,,fffffd%ooo..::qqquoooooooooooooooooooooooo",
"oooooooooooooooooooooooooooooooootid111:......,,fffs:sgggggggooooooooqeqoooooooooooooooooooooooo",
"ooooooooooooooooooooooooooooooooai--1:::.ooo.,fgggf<:fggggggggoooooooouooooooooooooooooooooooooo",
"ooooooooooooooooooooooooooooooooaaw--:.oooo,sgggggf<,sfggggggggooooooooooooooooooooooooooooooooo",
"oooooooooooooooooooooooooooooooouaa;=ooooo.sggggfds<,1sff>fffggo::oooooooooooooooooooooooooooooo",
"oooooooooooooooooooooooooooooooouaa;=ooooo,gggggfds<:.22,,2f,: ::XXooooooooooooooooooooooooooooo",
"ooooooooooooooooooooooooooooooooow;=ooooooggggggsss::.>2,,1,,.::XXXXoooooooooooooooooooooooooooo",
"ooooooooooooooooooooooooooooooooooooooooosgfggfgg,,:.o...> ++.:OXXXXoooooooooooooooooooooooooooo",
"oooooooooooooooooooooooooooooooooooooooooffggfd,,2,+$oo3o, +.:OXXXXXoooooooooooooooooooooooooooo",
"ooooooooooooooooooooooooooooooooooooooooffggfs2<+>>o&ooooo  .OOXXXXooooooooooooooooooooooooooooo",
"oooooooooooooooooooooooooooooooooooooooof>>>>s2<>,oo3oooooo  O XXXXooooooooooooooooooooooooooooo",
"oooooooooooooooooooooooooooooooooooooooo++++..>  ooooooooooo  XXXXoooooooooooooooooooooooooooooo",
"ooooooooooooooooooooooooooooooooooooooo:++++.. : ooooooooooo  XXXXoooooooooooooooooooooooooooooo",
"ooooooooooooooooooooooooooooooooooooooo::::+.. :ooooooooooooo XXXooooooooooooooooooooooooooooooo",
"ooooooooooooooooooooooooooooooooooooooo:....  @>oooooooooooooooooooooooooooooooooooooooooooooooo",
"ooooooooooooooooooooooooooooooooooooooo ... @ oooooooooooooooooooooooooooooooooooooooooooooooooo",
"oooooooooooooooooooooooooooooooooooooooo ::   oooooooooooooooooooooooooooooooooooooooooooooooooo",
"oooooooooooooooooooooooooooooooooooooo,,,,,+ ooooooooooooooooooooooooooooooooooooooooooooooooooo",
"ooooooooooooooooooooooooooooooooooooo,::::+.  oooooooooooooooooooooooooooooooooooooooooooooooooo",
"ooooooooooooooooooooooooooooooooooooo      ...oooooooooooooooooooooooooooooooooooooooooooooooooo",
"ooooooooooooooooooooooooooooooooooooooo       oooooooooooooooooooooooooooooooooooooooooooooooooo",
"oooooooooooooooooooooooooooooooooooooooooooooooooooooooooooooooooooooooooooooooooooooooooooooooo"
};
