/* XPM */
static char *idle4[] = {
/* columns rows colors chars-per-pixel */
"96 96 36 1 ",
"  c black",
". c #00001C",
"X c gray11",
"o c None",
"O c #00002C",
"+ c #000034",
"@ c #202020",
"# c #2C2C2C",
"$ c #6C4824",
"% c #000040",
"& c #00004C",
"* c #000058",
"= c #000064",
"- c #000070",
"; c #00007C",
": c #9C4C00",
"> c #B45400",
", c #80502C",
"< c #885830",
"1 c #9C6038",
"2 c #CC6000",
"3 c #E46C00",
"4 c #A86840",
"5 c #B47044",
"6 c #BC7848",
"7 c #FC8820",
"8 c #FCF400",
"9 c #FCA85C",
"0 c #FC9C60",
"q c #000088",
"w c #000098",
"e c #0000A4",
"r c #0000B0",
"t c #0000BC",
"y c #0000D4",
"u c #FCCCB0",






















/* pixels */
"oooooooooooooooooooooooooooooooooooooooooooooooooooooooooooooooooooooooooooooooooooooooooooooooo",
"oooooooooooooooooooooooooooooooooooooooooooooooooooooooooooooooooooooooooooooooooooooooooooooooo",
"oooooooooooooooooooooooooooooooooooooooooooooooooooooooooooooooooooooooooooooooooooooooooooooooo",
"oooooooooooooooooooooooooooooooooooooooooooooooooooooooooooooooooooooooooooooooooooooooooooooooo",
"oooooooooooooooooooooooooooooooooooooooooooooooooooooooooooooooooooooooooooooooooooooooooooooooo",
"oooooooooooooooooooooooooooooooooooooooooooooooooooooooooooooooooooooooooooooooooooooooooooooooo",
"oooooooooooooooooooooooooooooooooooooooooooooooooooooooooooooooooooooooooooooooooooooooooooooooo",
"oooooooooooooooooooooooooooooooooooooooooooooooooooooooooooooooooooooooooooooooooooooooooooooooo",
"oooooooooooooooooooooooooooooooooooooooooooooooooooooooooooooooooooooooooooooooooooooooooooooooo",
"oooooooooooooooooooooooooooooooooooooooooooooooooooooooooooooooooooooooooooooooooooooooooooooooo",
"oooooooooooooooooooooooooooooooooooooooooooooooooooooooooooooooooooooooooooooooooooooooooooooooo",
"oooooooooooooooooooooooooooooooooooooooooooooooooooooooooooooooooooooooooooooooooooooooooooooooo",
"oooooooooooooooooooooooooooooooooooooooooooooooooooooooooooooooooooooooooooooooooooooooooooooooo",
"oooooooooooooooooooooooooooooooooooooooooooooooooooooooooooooooooooooooooooooooooooooooooooooooo",
"oooooooooooooooooooooooooooooooooooooooooooooooooooooooooooooooooooooooooooooooooooooooooooooooo",
"oooooooooooooooooooooooooooooooooooooooooooooooooooooooooooooooooooooooooooooooooooooooooooooooo",
"oooooooooooooooooooooooooooooooooooooooooooooooooooooooooooooooooooooooooooooooooooooooooooooooo",
"oooooooooooooooooooooooooooooooooooooooooooooooooooooooooooooooooooooooooooooooooooooooooooooooo",
"oooooooooooooooooooooooooooooooooooooooooooooooooooooooooooooooooooooooooooooooooooooooooooooooo",
"oooooooooooooooooooooooooooooooooooooooooooooooooooooooooooooooooooooooooooooooooooooooooooooooo",
"oooooooooooooooooooooooooooooooooooooooooooooooooooooooooooooooooooooooooooooooooooooooooooooooo",
"oooooooooooooooooooooooooooooooooooooooooooooooooooooooooooooooooooooooooooooooooooooooooooooooo",
"oooooooooooooooooooooooooooooooooooooooooooooooooooooooooooooooooooooooooooooooooooooooooooooooo",
"oooooooooooooooooooooooooooooooooooooooooooooooooooooooooooooooooooooooooooooooooooooooooooooooo",
"oooooooooooooooooooooooooooooooooooooooooooooooooooooooooooooooooooooooooooooooooooooooooooooooo",
"oooooooooooooooooooooooooooooooooooooooooooooooooooooooooooooooooooooooooooooooooooooooooooooooo",
"oooooooooooooooooooooooooooooooooooooooooooooooooooooooooooooooooooooooooooooooooooooooooooooooo",
"oooooooooooooooooooooooooooooooooooooooooooooooooooooooooooooooooooooooooooooooooooooooooooooooo",
"oooooooooooooooooooooooooooooooooooooooooooooooooooooooooooooooooooooooooooooooooooooooooooooooo",
"oooooooooooooooooooooooooooooooooooooooooooooooooooooooooooooooooooooooooooooooooooooooooooooooo",
"oooooooooooooooooooooooooooooooooooooooooooooooooooooooooooooooooooooooooooooooooooooooooooooooo",
"oooooooooooooooooooooooooooooooooooooooooooooooooooooooooooooooooooooooooooooooooooooooooooooooo",
"oooooooooooooooooooooooooooooooooooooooooooooooooooooooooooooooooooooooooooooooooooooooooooooooo",
"oooooooooooooooooooooooooooooooooooooooooooooooooooooooooooooooooooooooooooooooooooooooooooooooo",
"oooooooooooooooooooooooooooooooooooooooooooooooooooooooooooooooooooooooooooooooooooooooooooooooo",
"oooooooooooooooooooooooooooooooooooooooooooooooooooooooooooooooooooooooooooooooooooooooooooooooo",
"oooooooooooooooooooooooooooooooooooooooooooooooooooooooooooooooooooooooooooooooooooooooooooooooo",
"oooooooooooooooooooooooooooooooooooooooooooooooooooooooooooooooooooooooooooooooooooooooooooooooo",
"oooooooooooooooooooooooooooooooooooooooooooooooooooooooooooooooooooooooooooooooooooooooooooooooo",
"oooooooooooooooooooooooooooooooooooooooooooooooooooooooooooooooooooooooooooooooooooooooooooooooo",
"oooooooooooooooooooooooooooooooooooooooooooooeee&&oooooooooooooooooooooooooooooooooooooooooooooo",
"oooooooooooooooooooooooooooooooooooooooooooeeq;&    oooooooooooooooooooooooooooooooooooooooooooo",
"ooooooooooooooooooooooooooooooooooooooooooeq;--%     ooooooooooooooooooooooooooooooooooooooooooo",
"ooooooooooooooooooooooooooooooooooooooooooq;;--%     ooooooooooooooooooooooooooooooooooooooooooo",
"ooooooooooooooooooooooooooooooooooooooooooq;;--&     ooooooooooooooooooooooooooooooooooooooooooo",
"oooooooooooooooooooooooooooooooooooooooooo;97732>:$$oooooooooooooooooooooooooooooooooooooooooooo",
"oooooooooooooooooooooooooooooooooooooooooo5893722:$$<ooooooooooooooooooooooooooooooooooooooooooo",
"oooooooooooooooooooooooooooooooooooooooooo,97732>:$$$ooooooooooooooooooooooooooooooooooooooooooo",
"oooooooooooooooooooooooooooooooooooooooooo5893722:$$<ooooooooooooooooooooooooooooooooooooooooooo",
"ooooooooooooooooooooooooooooooooooooooooooou9732>:$,oooooooooooooooooooooooooooooooooooooooooooo",
"ooooooooooooooooooooooooooooooooooooooooooouu065411,oooooooooooooooooooooooooooooooooooooooooooo",
"ooooooooooooooooooooooooooooooooooooooooooo         oooooooooooooooooooooooooooooooooooooooooooo",
"oooooooooooooooooooooooooooooooooooooooooo##         ooooooooooooooooooooooooooooooooooooooooooo",
"oooooooooooooooooooooooooooooooooooooooooeeeeee;;;***   oooooooooooooooooooooooooooooooooooooooo",
"ooooooooooooooooooooooooooooooooooooooeeeeeewwqqqqqqq   -=oooooooooooooooooooooooooooooooooooooo",
"ooooooooooooooooooooooooooooooooooooeeeeeqqqqqq=qqqq%  --;=ooooooooooooooooooooooooooooooooooooo",
"oooooooooooooooooooooooooooooooooooeereq;;;;;;;=;;;%   ----=oooooooooooooooooooooooooooooooooooo",
"ooooooooooooooooooooooooooooooooooeeee;;=;;;;;-&=;%   %--;;-oooooooooooooooooooooooooooooooooooo",
"ooooooooooooooooooooooooooooooooooeereq&=-----=&&%   %=%;qqq=ooooooooooooooooooooooooooooooooooo",
"oooooooooooooooooooooooooooooooooeerewq&%=====%&%   +*% *qww--oooooooooooooooooooooooooooooooooo",
"oooooooooooooooooooooooooooooooooerrw;- %*===*%%   +%%+ *;qwq-oooooooooooooooooooooooooooooooooo",
"ooooooooooooooooooooooooooooooooqeee;& %+%***%%   +%%%+O**qwwq-ooooooooooooooooooooooooooooooooo",
"ooooooooooooooooooooooooooooooooeeeeqq& +%%%%%   +%%%+ O**wwqq-ooooooooooooooooooooooooooooooooo",
"ooooooooooooooooooooooooooooooooqeewq;&  +%%O   .+++OO .%*=---%ooooooooooooooooooooooooooooooooo",
"oooooooooooooooooooooooooooooooooq;;==%  +..    ......  O%%==%oooooooooooooooooooooooooooooooooo",
"oooooooooooooooooooooooooooooooooo&&&%O @@XXXX          ..+% ooooooooooooooooooooooooooooooooooo",
"ooooooooooooooooooooooooooooooooooo&%OO @@XXXX              oooooooooooooooooooooooooooooooooooo",
"ooooooooooooooooooooooooooooooooooooOO %*===**&&%%+++.... oooooooooooooooooooooooooooooooooooooo",
"ooooooooooooooooooooooooooooooooooooooo;;weqq;-*=**&%%+OOooooooooooooooooooooooooooooooooooooooo",
"oooooooooooooooooooooooooooooooooooooo;;;weqq;-*=**&%%+OOooooooooooooooooooooooooooooooooooooooo",
"oooooooooooooooooooooooooooooooooooooo;;;weqq;-*=**&%%+OOooooooooooooooooooooooooooooooooooooooo",
"oooooooooooooooooooooooooooooooooooooo;;;weqq;-%=**&%%+OOooooooooooooooooooooooooooooooooooooooo",
"oooooooooooooooooooooooooooooooooooooo;;;weqq;-%=**&%%+OOooooooooooooooooooooooooooooooooooooooo",
"ooooooooooooooooooooooooooooooooooooooo****%%O........OOoooooooooooooooooooooooooooooooooooooooo",
"ooooooooooooooooooooooooooooooooooooooo-;q--%+...+&&&%+%oooooooooooooooooooooooooooooooooooooooo",
"ooooooooooooooooooooooooooooooooooooooo;wq--%+..O&*-*%+%oooooooooooooooooooooooooooooooooooooooo",
"ooooooooooooooooooooooooooooooooooooooowwe;-%+..O%=-=&+%oooooooooooooooooooooooooooooooooooooooo",
"ooooooooooooooooooooooooooooooooooooooowrrr-%O..O%;--&%%oooooooooooooooooooooooooooooooooooooooo",
"ooooooooooooooooooooooooooooooooooooooowrrw%%O..O%;--&%%oooooooooooooooooooooooooooooooooooooooo",
"ooooooooooooooooooooooooooooooooooooooowwr;-%O..O%;--&%%oooooooooooooooooooooooooooooooooooooooo",
"ooooooooooooooooooooooooooooooooooooooorytt-&%.O%*qeeq=%oooooooooooooooooooooooooooooooooooooooo",
"oooooooooooooooooooooooooooooooooooooooyw;-%+O..++&%%++%oooooooooooooooooooooooooooooooooooooooo",
"oooooooooooooooooooooooooooooooooooooooyq-%.....++%%%%+%oooooooooooooooooooooooooooooooooooooooo",
"oooooooooooooooooooooooooooooooooooooooett--%+..O%===%%%oooooooooooooooooooooooooooooooooooooooo",
"ooooooooooooooooooooooooooooooooooooooo*e-*%++..O%%%%%%%oooooooooooooooooooooooooooooooooooooooo",
"oooooooooooooooooooooooooooooooooooooooo*%%++....O%%%% ooooooooooooooooooooooooooooooooooooooooo",
"oooooooooooooooooooooooooooooooooooooooo       o       ooooooooooooooooooooooooooooooooooooooooo",
"oooooooooooooooooooooooooooooooooooooooo%      o       ooooooooooooooooooooooooooooooooooooooooo",
"oooooooooooooooooooooooooooooooooooooooo%%     o       ooooooooooooooooooooooooooooooooooooooooo",
"oooooooooooooooooooooooooooooooooooooooo%%     o       ooooooooooooooooooooooooooooooooooooooooo",
"ooooooooooooooooooooooooooooooooooooooooo %    o      oooooooooooooooooooooooooooooooooooooooooo",
"ooooooooooooooooooooooooooooooooooooooooo     ooo     oooooooooooooooooooooooooooooooooooooooooo",
"oooooooooooooooooooooooooooooooooooooooo%%    ooo     %ooooooooooooooooooooooooooooooooooooooooo",
"ooooooooooooooooooooooooooooooooooooooo%%%     o       %oooooooooooooooooooooooooooooooooooooooo",
"ooooooooooooooooooooooooooooooooooooooo%%      o        oooooooooooooooooooooooooooooooooooooooo",
"ooooooooooooooooooooooooooooooooooooooo%      @o       ooooooooooooooooooooooooooooooooooooooooo"
};
