/* XPM */
static char *run33[] = {
/* columns rows colors chars-per-pixel */
"96 96 44 1 ",
"  c black",
". c #00001C",
"X c gray11",
"o c None",
"O c #00002C",
"+ c #000034",
"@ c #2C2C2C",
"# c #543C1C",
"$ c #5C4020",
"% c #6C4824",
"& c #744C28",
"* c #000040",
"= c #00004C",
"- c #000058",
"; c #000064",
": c #000070",
"> c #00007C",
", c #484848",
"< c #646464",
"1 c gray44",
"2 c #9C4C00",
"3 c #905C34",
"4 c #9C6038",
"5 c #FC7800",
"6 c #BC7848",
"7 c #FC8820",
"8 c #FCF400",
"9 c #D08050",
"0 c #DC8854",
"q c #F0945C",
"w c #FCA470",
"e c #FCFC54",
"r c #000088",
"t c #000098",
"y c #0000A4",
"u c #0000B0",
"i c #0000BC",
"p c #0000C8",
"a c #0000D4",
"s c #0000E0",
"d c #FCB080",
"f c #FCB890",
"g c #FCBC9C",
"h c #FCCCB0",














/* pixels */
"oooooooooooooooooooooooooooooooooooooooooooooooooooooooooooooooooooooooooooooooooooooooooooooooo",
"oooooooooooooooooooooooooooooooooooooooooooooooooooooooooooooooooooooooooooooooooooooooooooooooo",
"oooooooooooooooooooooooooooooooooooooooooooooooooooooooooooooooooooooooooooooooooooooooooooooooo",
"oooooooooooooooooooooooooooooooooooooooooooooooooooooooooooooooooooooooooooooooooooooooooooooooo",
"oooooooooooooooooooooooooooooooooooooooooooooooooooooooooooooooooooooooooooooooooooooooooooooooo",
"oooooooooooooooooooooooooooooooooooooooooooooooooooooooooooooooooooooooooooooooooooooooooooooooo",
"oooooooooooooooooooooooooooooooooooooooooooooooooooooooooooooooooooooooooooooooooooooooooooooooo",
"oooooooooooooooooooooooooooooooooooooooooooooooooooooooooooooooooooooooooooooooooooooooooooooooo",
"oooooooooooooooooooooooooooooooooooooooooooooooooooooooooooooooooooooooooooooooooooooooooooooooo",
"oooooooooooooooooooooooooooooooooooooooooooooooooooooooooooooooooooooooooooooooooooooooooooooooo",
"oooooooooooooooooooooooooooooooooooooooooooooooooooooooooooooooooooooooooooooooooooooooooooooooo",
"oooooooooooooooooooooooooooooooooooooooooooooooooooooooooooooooooooooooooooooooooooooooooooooooo",
"oooooooooooooooooooooooooooooooooooooooooooooooooooooooooooooooooooooooooooooooooooooooooooooooo",
"oooooooooooooooooooooooooooooooooooooooooooooooooooooooooooooooooooooooooooooooooooooooooooooooo",
"oooooooooooooooooooooooooooooooooooooooooooooooooooooooooooooooooooooooooooooooooooooooooooooooo",
"oooooooooooooooooooooooooooooooooooooooooooooooooooooooooooooooooooooooooooooooooooooooooooooooo",
"oooooooooooooooooooooooooooooooooooooooooooooooooooooooooooooooooooooooooooooooooooooooooooooooo",
"oooooooooooooooooooooooooooooooooooooooooooooooooooooooooooooooooooooooooooooooooooooooooooooooo",
"oooooooooooooooooooooooooooooooooooooooooooooooooooooooooooooooooooooooooooooooooooooooooooooooo",
"oooooooooooooooooooooooooooooooooooooooooooooooooooooooooooooooooooooooooooooooooooooooooooooooo",
"oooooooooooooooooooooooooooooooooooooooooooooooooooooooooooooooooooooooooooooooooooooooooooooooo",
"oooooooooooooooooooooooooooooooooooooooooooooooooooooooooooooooooooooooooooooooooooooooooooooooo",
"oooooooooooooooooooooooooooooooooooooooooooooooooooooooooooooooooooooooooooooooooooooooooooooooo",
"oooooooooooooooooooooooooooooooooooooooooooooooooooooooooooooooooooooooooooooooooooooooooooooooo",
"oooooooooooooooooooooooooooooooooooooooooooooooooooooooooooooooooooooooooooooooooooooooooooooooo",
"oooooooooooooooooooooooooooooooooooooooooooooooooooooooooooooooooooooooooooooooooooooooooooooooo",
"oooooooooooooooooooooooooooooooooooooooooooooooooooooooooooooooooooooooooooooooooooooooooooooooo",
"oooooooooooooooooooooooooooooooooooooooooooooooooooooooooooooooooooooooooooooooooooooooooooooooo",
"oooooooooooooooooooooooooooooooooooooooooooooooooooooooooooooooooooooooooooooooooooooooooooooooo",
"oooooooooooooooooooooooooooooooooooooooooooooooooooooooooooooooooooooooooooooooooooooooooooooooo",
"oooooooooooooooooooooooooooooooooooooooooooooooooooooooooooooooooooooooooooooooooooooooooooooooo",
"oooooooooooooooooooooooooooooooooooooooooooooooooooooooooooooooooooooooooooooooooooooooooooooooo",
"oooooooooooooooooooooooooooooooooooooooooooooooooooooooooooooooooooooooooooooooooooooooooooooooo",
"oooooooooooooooooooooooooooooooooooooooooooooooooooooooooooooooooooooooooooooooooooooooooooooooo",
"oooooooooooooooooooooooooooooooooooooooooooooooooooooooooooooooooooooooooooooooooooooooooooooooo",
"oooooooooooooooooooooooooooooooooooooooooooooooooooooooooooooooooooooooooooooooooooooooooooooooo",
"oooooooooooooooooooooooooooooooooooooooooooooooooooooooooooooooooooooooooooooooooooooooooooooooo",
"oooooooooooooooooooooooooooooooooooooooooooooooooooooooooooooooooooooooooooooooooooooooooooooooo",
"oooooooooooooooooooooooooooooooooooooooooooooooooooooooooooooooooooooooooooooooooooooooooooooooo",
"oooooooooooooooooooooooooooooooooooooooooooooooooooooooooooooooooooooooooooooooooooooooooooooooo",
"ooooooooooooooooooooooooooooooooooooooooooooosssr-*ooooooooooooooooooooooooooooooooooooooooooooo",
"oooooooooooooooooooooooooooooooooooooooooosssrrr-***oooooooooooooooooooooooooooooooooooooooooooo",
"ooooooooooooooooooooooooooooooooooooooooositrr:-*****ooooooooooooooooooooooooooooooooooooooooooo",
"ooooooooooooooooooooooooooooooooooooooooosittr:-*****ooooooooooooooooooooooooooooooooooooooooooo",
"oooooooooooooooooooooooooooooooooooooooooiittr:-*****ooooooooooooooooooooooooooooooooooooooooooo",
"ooooooooooooooooooooooooooooooooooooooooo37e8522&&%$#ooooooooooooooooooooooooooooooooooooooooooo",
"oooooooooooooooooooooooooooooooooooooooooddew52&2&%$#ooooooooooooooooooooooooooooooooooooooooooo",
"ooooooooooooooooooooooooooooooooooooooooohge9w22&2%$#ooooooooooooooooooooooooooooooooooooooooooo",
"ooooooooooooooooooooooooooooooooooooooooogddw62&2&%##ooooooooooooooooooooooooooooooooooooooooooo",
"ooooooooooooooooooooooooooooooooooooooooo0ww64&2&&%#oooooooooooooooooooooooooooooooooooooooooooo",
"ooooooooooooooooooooooooooooooooooooooooo0wf64%$$##ooooooooooooooooooooooooooooooooooooooooooooo",
"ooooooooooooooooooooooooooooooooooooooooohfq%       oooooooooooooooooooooooooooooooooooooooooooo",
"ooooooooooooooooooooooooooooooooooooooooooo          ooooooooooooooooooooooooooooooooooooooooooo",
"oooooooooooooooooooooooooooooooooooooooooo rrrrrr--- *oooooooooooooooooooooooooooooooooooooooooo",
"ooooooooooooooooooooooooooooooooooooooooaauuuurr>;--  *ooooooooooooooooooooooooooooooooooooooooo",
"oooooooooooooooooooooooooooooooooooooooaaautt>>::--*  **oooooooooooooooooooooooooooooooooooooooo",
"ooooooooooooooooooooooooooooooooooooooaauut>::::;==*  +*oooooooooooooooooooooooooooooooooooooooo",
"ooooooooooooooooooooooooooooooooooooooaautt------**+  .+*ooooooooooooooooooooooooooooooooooooooo",
"ooooooooooooooooooooooooooooooooooooooaaut>-*****=*+  .O+ooooooooooooooooooooooooooooooooooooooo",
"oooooooooooooooooooooooooooooooooooooaaat>>-*******.  .O+ooooooooooooooooooooooooooooooooooooooo",
"ooooooooooooooooooooooooooooooooooooaaau>>-**+****+  ...Oooooooooooooooooooooooooooooooooooooooo",
"oooooooooooooooooooooooooooooooo1oooatau>--*.+++++.  ...O*oooooooooooooooooooooooooooooooooooooo",
"ooooooooooooooooooooooooooooooo<<<<aata----*.O+++.  ....O*oooooooooooooooooooooooooooooooooooooo",
"ooooooooooooooooooooooooooooooo,,,,aat-****..OO..   ....+*oooooooooooooooooooooooooooooooooooooo",
"ooooooooooooooooooooooooooooooo@@@utat-*** **.     .....*ooooooooooooooooooooooooooooooooooooooo",
"ooooooooooooooooooooooooooooooooooutt;;;*o             ooooooooooooooooooooooooooooooooooooooooo",
"oooooooooooooooooooooooooooooooooo>>t;***o             ooooooooooooooooooooooooooooooooooooooooo",
"oooooooooooooooooooooooooooooooooo>>;***o--**++........*oooooooooooooooooooooooooooooooooooooooo",
"ooooooooooooooooooooooooooooooooooo;;;ooop>>-**++++.+OOOoooooooooooooooooooooooooooooooooooooooo",
"ooooooooooooooooooooooooooooooooooooooooppur--*++++++OOOoooooooooooooooooooooooooooooooooooooooo",
"ooooooooooooooooooooooooooooooooooooooooppur-=**+++++OOOoooooooooooooooooooooooooooooooooooooooo",
"ooooooooooooooooooooooooooooooooooooooopppur-=**+++O+OOOoooooooooooooooooooooooooooooooooooooooo",
"oooooooooooooooooooooooooooooooooooooooosr::****+++O++OOoooooooooooooooooooooooooooooooooooooooo",
"ooooooooooooooooooooooooooooooooooooooossuyr-*OOO.....O*oooooooooooooooooooooooooooooooooooooooo",
"oooooooooooooooooooooooooooooooooooooosspytr;**+O......ooooooooooooooooooooooooooooooooooooooooo",
"oooooooooooooooooooooooooooooooooooooospuyr:--*+OO...O*ooooooooooooooooooooooooooooooooooooooooo",
"ooooooooooooooooooooooooooooooooooooossputr:-**+OO...O*ooooooooooooooooooooooooooooooooooooooooo",
"ooooooooooooooooooooooooooooooooooooosputr:-**+OOO...O*ooooooooooooooooooooooooooooooooooooooooo",
"oooooooooooooooooooooooooooooooooooopsssiu:*OOOO.....O*ooooooooooooooooooooooooooooooooooooooooo",
"oooooooooooooooooooooooooooooooooooopsiu>;::-OOO.....O*ooooooooooooooooooooooooooooooooooooooooo",
"oooooooooooooooooooooooooooooooooooopssuuurr:--O..OOO**ooooooooooooooooooooooooooooooooooooooooo",
"oooooooooooooooooooooooooooooooooooooptttr::-***.....O*ooooooooooooooooooooooooooooooooooooooooo",
"oooooooooooooooooooooooooooooooooooooottt::-OO.  ....O*ooooooooooooooooooooooooooooooooooooooooo",
"oooooooooooooooooooooooooooooooooooooootr:-*O ...O..O**ooooooooooooooooooooooooooooooooooooooooo",
"oooooooooooooooooooooooooooooooooooooooor--* ++O. OO**oooooooooooooooooooooooooooooooooooooooooo",
"oooooooooooooooooooooooooooooooooooooooooo*OO++O.     *ooooooooooooooooooooooooooooooooooooooooo",
"ooooooooooooooooooooooooooooooooooooooooooo..*.. ..   *ooooooooooooooooooooooooooooooooooooooooo",
"ooooooooooooooooooooooooooooooooooooooooooooo ++. XXX  ooooooooooooooooooooooooooooooooooooooooo",
"ooooooooooooooooooooooooooooooooooooooooooooo*++.XXXX  ooooooooooooooooooooooooooooooooooooooooo",
"oooooooooooooooooooooooooooooooooooooooooooo*** XXXXX  ooooooooooooooooooooooooooooooooooooooooo",
"ooooooooooooooooooooooooooooooooooooooooooo**+ XXXXX   ooooooooooooooooooooooooooooooooooooooooo",
"ooooooooooooooooooooooooooooooooooooooooooo**XXXXXX    ooooooooooooooooooooooooooooooooooooooooo",
"ooooooooooooooooooooooooooooooooooooooooooo= XXX+.     ooooooooooooooooooooooooooooooooooooooooo",
"oooooooooooooooooooooooooooooooooooooooooooooOO+O.      oooooooooooooooooooooooooooooooooooooooo",
"oooooooooooooooooooooooooooooooooooooooooooooOOO..      oooooooooooooooooooooooooooooooooooooooo",
"ooooooooooooooooooooooooooooooooooooooooooooooo         oooooooooooooooooooooooooooooooooooooooo"
};
