/* XPM */
static char *run41[] = {
/* columns rows colors chars-per-pixel */
"96 96 37 1 ",
"  c black",
". c #00001C",
"X c gray11",
"o c None",
"O c #00002C",
"+ c #000034",
"@ c #202020",
"# c #2C2C2C",
"$ c #6C4824",
"% c #000040",
"& c #00004C",
"* c #000058",
"= c #000064",
"- c #000070",
"; c #00007C",
": c #9C4C00",
"> c #B45400",
", c #80502C",
"< c #885830",
"1 c #9C6038",
"2 c #CC6000",
"3 c #E46C00",
"4 c #A86840",
"5 c #B47044",
"6 c #BC7848",
"7 c #FC8820",
"8 c #FCF400",
"9 c #FCA85C",
"0 c #FC9C60",
"q c #000088",
"w c #000098",
"e c #0000A4",
"r c #0000B0",
"t c #0000BC",
"y c #0000C8",
"u c #0000E0",
"i c #FCCCB0",





















/* pixels */
"oooooooooooooooooooooooooooooooooooooooooooooooooooooooooooooooooooooooooooooooooooooooooooooooo",
"oooooooooooooooooooooooooooooooooooooooooooooooooooooooooooooooooooooooooooooooooooooooooooooooo",
"oooooooooooooooooooooooooooooooooooooooooooooooooooooooooooooooooooooooooooooooooooooooooooooooo",
"oooooooooooooooooooooooooooooooooooooooooooooooooooooooooooooooooooooooooooooooooooooooooooooooo",
"oooooooooooooooooooooooooooooooooooooooooooooooooooooooooooooooooooooooooooooooooooooooooooooooo",
"oooooooooooooooooooooooooooooooooooooooooooooooooooooooooooooooooooooooooooooooooooooooooooooooo",
"oooooooooooooooooooooooooooooooooooooooooooooooooooooooooooooooooooooooooooooooooooooooooooooooo",
"oooooooooooooooooooooooooooooooooooooooooooooooooooooooooooooooooooooooooooooooooooooooooooooooo",
"oooooooooooooooooooooooooooooooooooooooooooooooooooooooooooooooooooooooooooooooooooooooooooooooo",
"oooooooooooooooooooooooooooooooooooooooooooooooooooooooooooooooooooooooooooooooooooooooooooooooo",
"oooooooooooooooooooooooooooooooooooooooooooooooooooooooooooooooooooooooooooooooooooooooooooooooo",
"oooooooooooooooooooooooooooooooooooooooooooooooooooooooooooooooooooooooooooooooooooooooooooooooo",
"oooooooooooooooooooooooooooooooooooooooooooooooooooooooooooooooooooooooooooooooooooooooooooooooo",
"oooooooooooooooooooooooooooooooooooooooooooooooooooooooooooooooooooooooooooooooooooooooooooooooo",
"oooooooooooooooooooooooooooooooooooooooooooooooooooooooooooooooooooooooooooooooooooooooooooooooo",
"oooooooooooooooooooooooooooooooooooooooooooooooooooooooooooooooooooooooooooooooooooooooooooooooo",
"oooooooooooooooooooooooooooooooooooooooooooooooooooooooooooooooooooooooooooooooooooooooooooooooo",
"oooooooooooooooooooooooooooooooooooooooooooooooooooooooooooooooooooooooooooooooooooooooooooooooo",
"oooooooooooooooooooooooooooooooooooooooooooooooooooooooooooooooooooooooooooooooooooooooooooooooo",
"oooooooooooooooooooooooooooooooooooooooooooooooooooooooooooooooooooooooooooooooooooooooooooooooo",
"oooooooooooooooooooooooooooooooooooooooooooooooooooooooooooooooooooooooooooooooooooooooooooooooo",
"oooooooooooooooooooooooooooooooooooooooooooooooooooooooooooooooooooooooooooooooooooooooooooooooo",
"oooooooooooooooooooooooooooooooooooooooooooooooooooooooooooooooooooooooooooooooooooooooooooooooo",
"oooooooooooooooooooooooooooooooooooooooooooooooooooooooooooooooooooooooooooooooooooooooooooooooo",
"oooooooooooooooooooooooooooooooooooooooooooooooooooooooooooooooooooooooooooooooooooooooooooooooo",
"oooooooooooooooooooooooooooooooooooooooooooooooooooooooooooooooooooooooooooooooooooooooooooooooo",
"oooooooooooooooooooooooooooooooooooooooooooooooooooooooooooooooooooooooooooooooooooooooooooooooo",
"oooooooooooooooooooooooooooooooooooooooooooooooooooooooooooooooooooooooooooooooooooooooooooooooo",
"oooooooooooooooooooooooooooooooooooooooooooooooooooooooooooooooooooooooooooooooooooooooooooooooo",
"oooooooooooooooooooooooooooooooooooooooooooooooooooooooooooooooooooooooooooooooooooooooooooooooo",
"oooooooooooooooooooooooooooooooooooooooooooooooooooooooooooooooooooooooooooooooooooooooooooooooo",
"oooooooooooooooooooooooooooooooooooooooooooooooooooooooooooooooooooooooooooooooooooooooooooooooo",
"oooooooooooooooooooooooooooooooooooooooooooooooooooooooooooooooooooooooooooooooooooooooooooooooo",
"oooooooooooooooooooooooooooooooooooooooooooooooooooooooooooooooooooooooooooooooooooooooooooooooo",
"oooooooooooooooooooooooooooooooooooooooooooooooooooooooooooooooooooooooooooooooooooooooooooooooo",
"oooooooooooooooooooooooooooooooooooooooooooooooooooooooooooooooooooooooooooooooooooooooooooooooo",
"oooooooooooooooooooooooooooooooooooooooooooooooooooooooooooooooooooooooooooooooooooooooooooooooo",
"oooooooooooooooooooooooooooooooooooooooooooooooooooooooooooooooooooooooooooooooooooooooooooooooo",
"oooooooooooooooooooooooooooooooooooooooooooooooooooooooooooooooooooooooooooooooooooooooooooooooo",
"oooooooooooooooooooooooooooooooooooooooooooooooooooooooooooooooooooooooooooooooooooooooooooooooo",
"oooooooooooooooooooooooooooooooooooooooooooooeee&&oooooooooooooooooooooooooooooooooooooooooooooo",
"oooooooooooooooooooooooooooooooooooooooooooeeq;&    oooooooooooooooooooooooooooooooooooooooooooo",
"ooooooooooooooooooooooooooooooooooooooooooeq;--%     ooooooooooooooooooooooooooooooooooooooooooo",
"ooooooooooooooooooooooooooooooooooooooooooq;;--%     ooooooooooooooooooooooooooooooooooooooooooo",
"ooooooooooooooooooooooooooooooooooooooooooq;;--&     ooooooooooooooooooooooooooooooooooooooooooo",
"oooooooooooooooooooooooooooooooooooooooooo-97732>:$$oooooooooooooooooooooooooooooooooooooooooooo",
"oooooooooooooooooooooooooooooooooooooooooo5893722:$$<ooooooooooooooooooooooooooooooooooooooooooo",
"oooooooooooooooooooooooooooooooooooooooooo,97732>:$$$ooooooooooooooooooooooooooooooooooooooooooo",
"oooooooooooooooooooooooooooooooooooooooooo5893722:$$<ooooooooooooooooooooooooooooooooooooooooooo",
"oooooooooooooooooooooooooooooooooooooooooooi9732>:$,oooooooooooooooooooooooooooooooooooooooooooo",
"oooooooooooooooooooooooooooooooooooooooooooii065411,oooooooooooooooooooooooooooooooooooooooooooo",
"ooooooooooooooooooooooooooooooooooooooooooo         oooooooooooooooooooooooooooooooooooooooooooo",
"oooooooooooooooooooooooooooooooooooooooooo           ooooooooooooooooooooooooooooooooooooooooooo",
"oooooooooooooooooooooooooooooooooooooooowww---------  **oooooooooooooooooooooooooooooooooooooooo",
"oooooooooooooooooooooooooooooooooooooorrtttrwwwqqq;;  %%-*oooooooooooooooooooooooooooooooooooooo",
"ooooooooooooooooooooooooooooooooooooruyuuytrwwqqqqq;  %%***ooooooooooooooooooooooooooooooooooooo",
"oooooooooooooooooooooooooooooooooooruuyyrrwwq;-=*==   %%%***oooooooooooooooooooooooooooooooooooo",
"ooooooooooooooooooooooooooooooooooouyww-;;;;;;-=*=*   %+%%**oooooooooooooooooooooooooooooooooooo",
"oooooooooooooooooooooooooooooooooourywq=%;;;;;=%&%   %%++%%**ooooooooooooooooooooooooooooooooooo",
"ooooooooooooooooooooooooooooooooouurwqq=%====*&%%    %%+O+%***oooooooooooooooooooooooooooooooooo",
"ooooooooooooooooooooooooooooooooourrqqq%%==**&&%    +%+O.OO%**oooooooooooooooooooooooooooooooooo",
"oooooooooooooooooooooooooooooooorrrwqq-%.**&&%O    +%%+OOOO%**oooooooooooooooooooooooooooooooooo",
"ooooooooooooooooooooooooooooooooqwwq-**..%&%OO.  .+++OO...O%**oooooooooooooooooooooooooooooooooo",
"ooooooooooooooooooooooooooooooooqqq-=*%.OOO...  ..OOOO....O%%ooooooooooooooooooooooooooooooooooo",
"ooooooooooooooooooooooooooooooooo===%%o..      .........%%%%oooooooooooooooooooooooooooooooooooo",
"oooooooooooooooooooooooooooooooooo%%%oo#@@XXXXX        ooooooooooooooooooooooooooooooooooooooooo",
"ooooooooooooooooooooooooooooooooooooooo#@@XXXXX        ooooooooooooooooooooooooooooooooooooooooo",
"ooooooooooooooooooooooooooooooooooooooo====****%%%%%%OO%oooooooooooooooooooooooooooooooooooooooo",
"oooooooooooooooooooooooooooooooooooooo;;qeeeq=**&&&&%O.%oooooooooooooooooooooooooooooooooooooooo",
"oooooooooooooooooooooooooooooooooooooo;qqeqq-=*&&&&&&%O%oooooooooooooooooooooooooooooooooooooooo",
"oooooooooooooooooooooooooooooooooooooo;qeeqq-=*&&&&&&%OOoooooooooooooooooooooooooooooooooooooooo",
"oooooooooooooooooooooooooooooooooooooo;qeeqq-=*%&&&&&%OOoooooooooooooooooooooooooooooooooooooooo",
"oooooooooooooooooooooooooooooooooooooo=qeeqq-=%.**&&&%OOoooooooooooooooooooooooooooooooooooooooo",
"oooooooooooooooooooooooooooooooooooooo======%%%..O++++O+oooooooooooooooooooooooooooooooooooooooo",
"ooooooooooooooooooooooooooooooooooooooqe;&&%OO..+*;;;-&.oooooooooooooooooooooooooooooooooooooooo",
"ooooooooooooooooooooooooooooooooooooooqr;&%%O..+&-qq;;*&oooooooooooooooooooooooooooooooooooooooo",
"oooooooooooooooooooooooooooooooooooooooq;&%%O..+&-qq;;-%oooooooooooooooooooooooooooooooooooooooo",
"ooooooooooooooooooooooooooooooooooooooww;&%%O..+&-qq;;-%oooooooooooooooooooooooooooooooooooooooo",
"oooooooooooooooooooooooooooooooooooooow-%%%%O..+&-qq;;-%oooooooooooooooooooooooooooooooooooooooo",
"oooooooooooooooooooooooooooooooooooooo-%==%....+&-qq;;-%oooooooooooooooooooooooooooooooooooooooo",
"oooooooooooooooooooooooooooooooooooooo-q-==*%..+*qtwwqq%oooooooooooooooooooooooooooooooooooooooo",
"oooooooooooooooooooooooooooooooooooooor;==*%O..++**---+ooooooooooooooooooooooooooooooooooooooooo",
"oooooooooooooooooooooooooooooooooooooor;OOOOOO.O.&wtwqq%oooooooooooooooooooooooooooooooooooooooo",
"oooooooooooooooooooooooooooooooooooooor%%OO..OOO&-----*%oooooooooooooooooooooooooooooooooooooooo",
"oooooooooooooooooooooooooooooooooooooo%%%OOO. OO&-----*%oooooooooooooooooooooooooooooooooooooooo",
"oooooooooooooooooooooooooooooooooooooo%%OOOO. OO+%****%ooooooooooooooooooooooooooooooooooooooooo",
"oooooooooooooooooooooooooooooooooooooo&O.+OO.%oo%+%%%%% oooooooooooooooooooooooooooooooooooooooo",
"ooooooooooooooooooooooooooooooooooooooo.+%%%.%oo%O.     oooooooooooooooooooooooooooooooooooooooo",
"ooooooooooooooooooooooooooooooooooooooo+%%%% ooo%O.     oooooooooooooooooooooooooooooooooooooooo",
"ooooooooooooooooooooooooooooooooooooooo%.... %oo%%OO.  ooooooooooooooooooooooooooooooooooooooooo",
"ooooooooooooooooooooooooooooooooooooooo% .   %oo%%%O.  ooooooooooooooooooooooooooooooooooooooooo",
"oooooooooooooooooooooooooooooooooooooo% @@@@@%ooo%O.   ooooooooooooooooooooooooooooooooooooooooo",
"oooooooooooooooooooooooooooooooooooooo& @@@@@@ooo%O.   ooooooooooooooooooooooooooooooooooooooooo",
"ooooooooooooooooooooooooooooooooooooooo@@@@@@ooo%O..   +oooooooooooooooooooooooooooooooooooooooo",
"oooooooooooooooooooooooooooooooooooooooooooooooo%O..    oooooooooooooooooooooooooooooooooooooooo",
"oooooooooooooooooooooooooooooooooooooooooooooooo%O..    oooooooooooooooooooooooooooooooooooooooo"
};
