/* XPM */
static char *run53[] = {
/* columns rows colors chars-per-pixel */
"96 96 37 1 ",
"  c black",
". c #00001C",
"X c gray11",
"o c None",
"O c #00002C",
"+ c #000034",
"@ c #202020",
"# c #2C2C2C",
"$ c #000040",
"% c #00004C",
"& c #000058",
"* c #000064",
"= c #000070",
"- c #00007C",
"; c #9C4C00",
": c #B45400",
"> c #80502C",
", c #905C34",
"< c #9C6038",
"1 c #E46C00",
"2 c #BC7848",
"3 c #C87C4C",
"4 c #FC8820",
"5 c #CCC400",
"6 c #D08050",
"7 c #E88C58",
"8 c #FCA85C",
"9 c #FCA470",
"0 c #000088",
"q c #000098",
"w c #0000A4",
"e c #0000B0",
"r c #0000BC",
"t c #0000C8",
"y c #0000D4",
"u c #FCB890",
"i c #FCCCB0",





















/* pixels */
"oooooooooooooooooooooooooooooooooooooooooooooooooooooooooooooooooooooooooooooooooooooooooooooooo",
"oooooooooooooooooooooooooooooooooooooooooooooooooooooooooooooooooooooooooooooooooooooooooooooooo",
"oooooooooooooooooooooooooooooooooooooooooooooooooooooooooooooooooooooooooooooooooooooooooooooooo",
"oooooooooooooooooooooooooooooooooooooooooooooooooooooooooooooooooooooooooooooooooooooooooooooooo",
"oooooooooooooooooooooooooooooooooooooooooooooooooooooooooooooooooooooooooooooooooooooooooooooooo",
"oooooooooooooooooooooooooooooooooooooooooooooooooooooooooooooooooooooooooooooooooooooooooooooooo",
"oooooooooooooooooooooooooooooooooooooooooooooooooooooooooooooooooooooooooooooooooooooooooooooooo",
"oooooooooooooooooooooooooooooooooooooooooooooooooooooooooooooooooooooooooooooooooooooooooooooooo",
"oooooooooooooooooooooooooooooooooooooooooooooooooooooooooooooooooooooooooooooooooooooooooooooooo",
"oooooooooooooooooooooooooooooooooooooooooooooooooooooooooooooooooooooooooooooooooooooooooooooooo",
"oooooooooooooooooooooooooooooooooooooooooooooooooooooooooooooooooooooooooooooooooooooooooooooooo",
"oooooooooooooooooooooooooooooooooooooooooooooooooooooooooooooooooooooooooooooooooooooooooooooooo",
"oooooooooooooooooooooooooooooooooooooooooooooooooooooooooooooooooooooooooooooooooooooooooooooooo",
"oooooooooooooooooooooooooooooooooooooooooooooooooooooooooooooooooooooooooooooooooooooooooooooooo",
"oooooooooooooooooooooooooooooooooooooooooooooooooooooooooooooooooooooooooooooooooooooooooooooooo",
"oooooooooooooooooooooooooooooooooooooooooooooooooooooooooooooooooooooooooooooooooooooooooooooooo",
"oooooooooooooooooooooooooooooooooooooooooooooooooooooooooooooooooooooooooooooooooooooooooooooooo",
"oooooooooooooooooooooooooooooooooooooooooooooooooooooooooooooooooooooooooooooooooooooooooooooooo",
"oooooooooooooooooooooooooooooooooooooooooooooooooooooooooooooooooooooooooooooooooooooooooooooooo",
"oooooooooooooooooooooooooooooooooooooooooooooooooooooooooooooooooooooooooooooooooooooooooooooooo",
"oooooooooooooooooooooooooooooooooooooooooooooooooooooooooooooooooooooooooooooooooooooooooooooooo",
"oooooooooooooooooooooooooooooooooooooooooooooooooooooooooooooooooooooooooooooooooooooooooooooooo",
"oooooooooooooooooooooooooooooooooooooooooooooooooooooooooooooooooooooooooooooooooooooooooooooooo",
"oooooooooooooooooooooooooooooooooooooooooooooooooooooooooooooooooooooooooooooooooooooooooooooooo",
"oooooooooooooooooooooooooooooooooooooooooooooooooooooooooooooooooooooooooooooooooooooooooooooooo",
"oooooooooooooooooooooooooooooooooooooooooooooooooooooooooooooooooooooooooooooooooooooooooooooooo",
"oooooooooooooooooooooooooooooooooooooooooooooooooooooooooooooooooooooooooooooooooooooooooooooooo",
"oooooooooooooooooooooooooooooooooooooooooooooooooooooooooooooooooooooooooooooooooooooooooooooooo",
"oooooooooooooooooooooooooooooooooooooooooooooooooooooooooooooooooooooooooooooooooooooooooooooooo",
"oooooooooooooooooooooooooooooooooooooooooooooooooooooooooooooooooooooooooooooooooooooooooooooooo",
"oooooooooooooooooooooooooooooooooooooooooooooooooooooooooooooooooooooooooooooooooooooooooooooooo",
"oooooooooooooooooooooooooooooooooooooooooooooooooooooooooooooooooooooooooooooooooooooooooooooooo",
"oooooooooooooooooooooooooooooooooooooooooooooooooooooooooooooooooooooooooooooooooooooooooooooooo",
"oooooooooooooooooooooooooooooooooooooooooooooooooooooooooooooooooooooooooooooooooooooooooooooooo",
"oooooooooooooooooooooooooooooooooooooooooooooooooooooooooooooooooooooooooooooooooooooooooooooooo",
"oooooooooooooooooooooooooooooooooooooooooooooooooooooooooooooooooooooooooooooooooooooooooooooooo",
"oooooooooooooooooooooooooooooooooooooooooooooooooooooooooooooooooooooooooooooooooooooooooooooooo",
"oooooooooooooooooooooooooooooooooooooooooooooooooooooooooooooooooooooooooooooooooooooooooooooooo",
"oooooooooooooooooooooooooooooooooooooooooooooooooooooooooooooooooooooooooooooooooooooooooooooooo",
"oooooooooooooooooooooooooooooooooooooooooooooooyyr*%%ooooooooooooooooooooooooooooooooooooooooooo",
"ooooooooooooooooooooooooooooooooooooooooooooooyyyyr==*%%oooooooooooooooooooooooooooooooooooooooo",
"oooooooooooooooooooooooooooooooooooooooooooooyyyyyrw000*%ooooooooooooooooooooooooooooooooooooooo",
"oooooooooooooooooooooooooooooooooooooooooooooyyyyyrw000$$ooooooooooooooooooooooooooooooooooooooo",
"oooooooooooooooooooooooooooooooooooooooooooooyyyyyrw000$$ooooooooooooooooooooooooooooooooooooooo",
"ooooooooooooooooooooooooooooooooooooooooooooo8581::;;;;>>ooooooooooooooooooooooooooooooooooooooo",
"ooooooooooooooooooooooooooooooooooooooooooooo58441:;;3;<>ooooooooooooooooooooooooooooooooooooooo",
"ooooooooooooooooooooooooooooooooooooooooooooo8581::;9,;<<ooooooooooooooooooooooooooooooooooooooo",
"ooooooooooooooooooooooooooooooooooooooooooooo58441:;29<<<ooooooooooooooooooooooooooooooooooooooo",
"oooooooooooooooooooooooooooooooooooooooooooooo581::;229<>ooooooooooooooooooooooooooooooooooooooo",
"oooooooooooooooooooooooooooooooooooooooooooooo9ii99762u<>ooooooooooooooooooooooooooooooooooooooo",
"ooooooooooooooooooooooooooooooooooooooooooooo###### >233<ooooooooooooooooooooooooooooooooooooooo",
"ooooooooooooooooooooooooooooooooooooooooooooo######   >ooooooooooooooooooooooooooooooooooooooooo",
"oooooooooooooooooooooooooooooooooooooooooooqeeeeee00*   oooooooooooooooooooooooooooooooooooooooo",
"ooooooooooooooooooooooooooooooooooooooooo-qqryyyyw*@@@@@ ooooooooooooooooooooooooooooooooooooooo",
"oooooooooooooooooooooooooooooooooooooooo-qeryyyyw*@@@00==$$ooooooooooooooooooooooooooooooooooooo",
"ooooooooooooooooooooooooooooooooooooooo*-qeyyyyw@@@0trq00$$$oooooooooooooooooooooooooooooooooooo",
"ooooooooooooooooooooooooooooooooooooooo*-eeyyrq@@@0trq--*&$$$ooooooooooooooooooooooooooooooooooo",
"oooooooooooooooooooooooooooooooooooooo*--eryyq&@@0ttr--***&$$ooooooooooooooooooooooooooooooooooo",
"oooooooooooooooooooooooooooooooooooooo*--eeyw*@@0tttw-0&***&$$oooooooooooooooooooooooooooooooooo",
"oooooooooooooooooooooooooooooooooooooo*--qeeq@@*rttrw-$&****&$oooooooooooooooooooooooooooooooooo",
"oooooooooooooooooooooooooooooooooooooo$**-qq@@@-wttr-*$.&***&$$ooooooooooooooooooooooooooooooooo",
"ooooooooooooooooooooooooooooooooooooooo$**--@@&-0wrw-*$.+&**&$$ooooooooooooooooooooooooooooooooo",
"oooooooooooooooooooooooooooooooooooooooo$$$$@@&--ww-*&$+.&&&&$$ooooooooooooooooooooooooooooooooo",
"oooooooooooooooooooooooooooooooooooooooooo$$@@&--00-*$$+.++$$$oooooooooooooooooooooooooooooooooo",
"oooooooooooooooooooooooooooooooooooooooooo@@@@@         oooooooooooooooooooooooooooooooooooooooo",
"oooooooooooooooooooooooooooooooooooooooooo@@@@@         oooooooooooooooooooooooooooooooooooooooo",
"oooooooooooooooooooooooooooooooooooooooooe-------***$$$$.ooooooooooooooooooooooooooooooooooooooo",
"oooooooooooooooooooooooooooooooooooooooooweeeqqe00-**%$O.ooooooooooooooooooooooooooooooooooooooo",
"oooooooooooooooooooooooooooooooooooooooooweeeqqq00-**&$+Oooooooooooooooooooooooooooooooooooooooo",
"oooooooooooooooooooooooooooooooooooooooooweeeqeq00-**&%$+.oooooooooooooooooooooooooooooooooooooo",
"oooooooooooooooooooooooooooooooooooooooooreee=eq00-**&%$+Ooooooooooooooooooooooooooooooooooooooo",
"oooooooooooooooooooooooooooooooooooooooooeeee%eq00-**%$$+O.ooooooooooooooooooooooooooooooooooooo",
"ooooooooooooooooooooooooooooooooooooooooo%%%%%===%$%$$OOO.$ooooooooooooooooooooooooooooooooooooo",
"ooooooooooooooooooooooooooooooooooooooooo0*$$&---**$$+OO..$ooooooooooooooooooooooooooooooooooooo",
"ooooooooooooooooooooooooooooooooooooooooo0=&$$&00=*%%+OOO..$oooooooooooooooooooooooooooooooooooo",
"ooooooooooooooooooooooooooooooooooooooooo0=&$O$0--=&%$++OO.$oooooooooooooooooooooooooooooooooooo",
"ooooooooooooooooooooooooooooooooooooooooo0=&&$*$--=&%$+++O.$oooooooooooooooooooooooooooooooooooo",
"oooooooooooooooooooooooooooooooooooooooooo=&&$*$$$$$$$++++.$oooooooooooooooooooooooooooooooooooo",
"oooooooooooooooooooooooooooooooooooooooooo==&&****$**$$$$$$.oooooooooooooooooooooooooooooooooooo",
"oooooooooooooooooooooooooooooooooooooooooo0=&$O*w0000OOO$$$.oooooooooooooooooooooooooooooooooooo",
"ooooooooooooooooooooooooooooooooooooooooooe=&$Owee000=*&$$O.oooooooooooooooooooooooooooooooooooo",
"oooooooooooooooooooooooooooooooooooooooooo$$$$=wee00=&&$$$..oooooooooooooooooooooooooooooooooooo",
"ooooooooooooooooooooooooooooooooooooooooooee&$=$$$&0&$$$OO..oooooooooooooooooooooooooooooooooooo",
"oooooooooooooooooooooooooooooooooooooooooo$$$$$$$$$$&$$$...ooooooooooooooooooooooooooooooooooooo",
"ooooooooooooooooooooooooooooooooooooooooooe==$OOO+++.OO..ooooooooooooooooooooooooooooooooooooooo",
"oooooooooooooooooooooooooooooooooooooooooo=$$$$+........oooooooooooooooooooooooooooooooooooooooo",
"oooooooooooooooooooooooooooooooooooooooooo$$$$$+O.   ..ooooooooooooooooooooooooooooooooooooooooo",
"ooooooooooooooooooooooooooooooooooooooooooXX$++OO.  oooooooooooooooooooooooooooooooooooooooooooo",
"oooooooooooooooooooooooooooooooooooooooooo XXX... oooooooooooooooooooooooooooooooooooooooooooooo",
"oooooooooooooooooooooooooooooooooooooooooo XXX... oooooooooooooooooooooooooooooooooooooooooooooo",
"oooooooooooooooooooooooooooooooooooooooooo XXXX    ooooooooooooooooooooooooooooooooooooooooooooo",
"oooooooooooooooooooooooooooooooooooooooooo  XXXX   ooooooooooooooooooooooooooooooooooooooooooooo",
"oooooooooooooooooooooooooooooooooooooooooo$$ XXX    oooooooooooooooooooooooooooooooooooooooooooo",
"ooooooooooooooooooooooooooooooooooooooooo$$$   XX   oooooooooooooooooooooooooooooooooooooooooooo",
"ooooooooooooooooooooooooooooooooooooooooo$$$        oooooooooooooooooooooooooooooooooooooooooooo",
"ooooooooooooooooooooooooooooooooooooooooo$$$         ooooooooooooooooooooooooooooooooooooooooooo"
};
