/* XPM */
static char *run72[] = {
/* columns rows colors chars-per-pixel */
"96 96 52 1 ",
"  c black",
". c #00001C",
"X c #382C14",
"o c None",
"O c #00002C",
"+ c #000034",
"@ c #202020",
"# c #2C2C2C",
"$ c gray19",
"% c gray22",
"& c #403018",
"* c #543C1C",
"= c #5C4020",
"- c #6C4824",
"; c #744C28",
": c #000040",
"> c #00004C",
", c #000058",
"< c #000064",
"1 c #000070",
"2 c #00007C",
"3 c #484848",
"4 c gray33",
"5 c #646464",
"6 c #7C7C7C",
"7 c #9C4C00",
"8 c #80502C",
"9 c #885830",
"0 c #905C34",
"q c #A0643C",
"w c #E46C00",
"e c #B47044",
"r c #BC7848",
"t c #C87C4C",
"y c #FC8820",
"u c #CCC400",
"i c #D08050",
"p c #DC8854",
"a c #E88C58",
"s c #F0945C",
"d c #FC9C60",
"f c #FCA470",
"g c #000088",
"h c #000098",
"j c #0000A4",
"k c #0000B0",
"l c #0000BC",
"z c #0000C8",
"x c #0000D4",
"c c #FCB890",
"v c #FCBC9C",
"b c #FCCCB0",






/* pixels */
"oooooooooooooooooooooooooooooooooooooooooooooooooooooooooooooooooooooooooooooooooooooooooooooooo",
"oooooooooooooooooooooooooooooooooooooooooooooooooooooooooooooooooooooooooooooooooooooooooooooooo",
"oooooooooooooooooooooooooooooooooooooooooooooooooooooooooooooooooooooooooooooooooooooooooooooooo",
"oooooooooooooooooooooooooooooooooooooooooooooooooooooooooooooooooooooooooooooooooooooooooooooooo",
"oooooooooooooooooooooooooooooooooooooooooooooooooooooooooooooooooooooooooooooooooooooooooooooooo",
"oooooooooooooooooooooooooooooooooooooooooooooooooooooooooooooooooooooooooooooooooooooooooooooooo",
"oooooooooooooooooooooooooooooooooooooooooooooooooooooooooooooooooooooooooooooooooooooooooooooooo",
"oooooooooooooooooooooooooooooooooooooooooooooooooooooooooooooooooooooooooooooooooooooooooooooooo",
"oooooooooooooooooooooooooooooooooooooooooooooooooooooooooooooooooooooooooooooooooooooooooooooooo",
"oooooooooooooooooooooooooooooooooooooooooooooooooooooooooooooooooooooooooooooooooooooooooooooooo",
"oooooooooooooooooooooooooooooooooooooooooooooooooooooooooooooooooooooooooooooooooooooooooooooooo",
"oooooooooooooooooooooooooooooooooooooooooooooooooooooooooooooooooooooooooooooooooooooooooooooooo",
"oooooooooooooooooooooooooooooooooooooooooooooooooooooooooooooooooooooooooooooooooooooooooooooooo",
"oooooooooooooooooooooooooooooooooooooooooooooooooooooooooooooooooooooooooooooooooooooooooooooooo",
"oooooooooooooooooooooooooooooooooooooooooooooooooooooooooooooooooooooooooooooooooooooooooooooooo",
"oooooooooooooooooooooooooooooooooooooooooooooooooooooooooooooooooooooooooooooooooooooooooooooooo",
"oooooooooooooooooooooooooooooooooooooooooooooooooooooooooooooooooooooooooooooooooooooooooooooooo",
"oooooooooooooooooooooooooooooooooooooooooooooooooooooooooooooooooooooooooooooooooooooooooooooooo",
"oooooooooooooooooooooooooooooooooooooooooooooooooooooooooooooooooooooooooooooooooooooooooooooooo",
"oooooooooooooooooooooooooooooooooooooooooooooooooooooooooooooooooooooooooooooooooooooooooooooooo",
"oooooooooooooooooooooooooooooooooooooooooooooooooooooooooooooooooooooooooooooooooooooooooooooooo",
"oooooooooooooooooooooooooooooooooooooooooooooooooooooooooooooooooooooooooooooooooooooooooooooooo",
"oooooooooooooooooooooooooooooooooooooooooooooooooooooooooooooooooooooooooooooooooooooooooooooooo",
"oooooooooooooooooooooooooooooooooooooooooooooooooooooooooooooooooooooooooooooooooooooooooooooooo",
"oooooooooooooooooooooooooooooooooooooooooooooooooooooooooooooooooooooooooooooooooooooooooooooooo",
"oooooooooooooooooooooooooooooooooooooooooooooooooooooooooooooooooooooooooooooooooooooooooooooooo",
"oooooooooooooooooooooooooooooooooooooooooooooooooooooooooooooooooooooooooooooooooooooooooooooooo",
"oooooooooooooooooooooooooooooooooooooooooooooooooooooooooooooooooooooooooooooooooooooooooooooooo",
"oooooooooooooooooooooooooooooooooooooooooooooooooooooooooooooooooooooooooooooooooooooooooooooooo",
"oooooooooooooooooooooooooooooooooooooooooooooooooooooooooooooooooooooooooooooooooooooooooooooooo",
"oooooooooooooooooooooooooooooooooooooooooooooooooooooooooooooooooooooooooooooooooooooooooooooooo",
"oooooooooooooooooooooooooooooooooooooooooooooooooooooooooooooooooooooooooooooooooooooooooooooooo",
"oooooooooooooooooooooooooooooooooooooooooooooooooooooooooooooooooooooooooooooooooooooooooooooooo",
"oooooooooooooooooooooooooooooooooooooooooooooooooooooooooooooooooooooooooooooooooooooooooooooooo",
"oooooooooooooooooooooooooooooooooooooooooooooooooooooooooooooooooooooooooooooooooooooooooooooooo",
"oooooooooooooooooooooooooooooooooooooooooooooooooooooooooooooooooooooooooooooooooooooooooooooooo",
"oooooooooooooooooooooooooooooooooooooooooooooooooooooooooooooooooooooooooooooooooooooooooooooooo",
"oooooooooooooooooooooooooooooooooooooooooooooooooooooooooooooooooooooooooooooooooooooooooooooooo",
"oooooooooooooooooooooooooooooooooooooooooooooooooooooooooooooooooooooooooooooooooooooooooooooooo",
"oooooooooooooooooooooooooooooooooooooooooooooooooooooooooooooooooooooooooooooooooooooooooooooooo",
"oooooooooooooooooooooooooooooooooooooooooooooooooooooooooooooooooooooooooooooooooooooooooooooooo",
"oooooooooooooooooooooooooooooooooooooooooooooooooooooooooooooooooooooooooooooooooooooooooooooooo",
"oooooooooooooooooooooooooooooooooooooooooooooooooooooooooooooooooooooooooooooooooooooooooooooooo",
"ooooooooooooooooooooooooooooooooooooooooooooooxlj<>ooooooooooooooooooooooooooooooooooooooooooooo",
"oooooooooooooooooooooooooooooooooooooooooooooxlljg<>>ooooooooooooooooooooooooooooooooooooooooooo",
"ooooooooooooooooooooooooooooooooooooooooooooxxljgggg<>>ooooooooooooooooooooooooooooooooooooooooo",
"ooooooooooooooooooooooooooooooooooooooooooooxlljgggggg<>oooooooooooooooooooooooooooooooooooooooo",
"ooooooooooooooooooooooooooooooooooooooooooooxljjgggggg::oooooooooooooooooooooooooooooooooooooooo",
"oooooooooooooooooooooooooooooooooooooooooooouyww70gg::::oooooooooooooooooooooooooooooooooooooooo",
"oooooooooooooooooooooooooooooooooooooooooooouyfwtpl8q-looooooooooooooooooooooooooooooooooooooooo",
"ooooooooooooooooooooooooooooooooooooooooooooufiwtaaadtqooooooooooooooooooooooooooooooooooooooooo",
"ooooooooooooooooooooooooooooooooooooooooooooorfdtpaarq9ooooooooooooooooooooooooooooooooooooooooo",
"ooooooooooooooooooooooooooooooooooooooooooooobfveiaccs;ooooooooooooooooooooooooooooooooooooooooo",
"ooooooooooooooooooooooooooooooooooooooooooooobfceiaiiq9ooooooooooooooooooooooooooooooooooooooooo",
"oooooooooooooooooooooooooooooooooooooooooooo  rscaaaiq9ooooooooooooooooooooooooooooooooooooooooo",
"oooooooooooooooooooooooooooooooooooooooooooo    ee88oooooooooooooooooooooooooooooooooooooooooooo",
"ooooooooooooooooooooooooooooooooooooooooooo    6  88 ooooooooooooooooooooooooooooooooooooooooooo",
"oooooooooooooooooooooooooooooooooooooooooo<<    3     oooooooooooooooooooooooooooooooooooooooooo",
"ooooooooooooooooooooooooooooooooooooooooohhh21:    O+::ooooooooooooooooooooooooooooooooooooooooo",
"ooooooooooooooooooooooooooooooooooooooookkkhh2:::  .O++ooooooooooooooooooooooooooooooooooooooooo",
"oooooooooooooooooooooooooooooooooooooookkkkhh2<:::  OO.:5ooooooooooooooooooooooooooooooooooooooo",
"oooooooooooooooooooooooooooooooooooooookkkhhhg<:::: ...%55oooooooooooooooooooooooooooooooooooooo",
"ooooooooooooooooooooooooooooooooooooooohkkkkhg<+:::: .%343oooooooooooooooooooooooooooooooooooooo",
"ooooooooooooooooooooooooooooooooooooooohkkhhg2<O+::: %33%#oooooooooooooooooooooooooooooooooooooo",
"ooooooooooooooooooooooooooooooooooooooohkkkkkkk..+++%333@@oooooooooooooooooooooooooooooooooooooo",
"ooooooooooooooooooooooooooooooooooooooohkkkh<++O..O%443%XXoooooooooooooooooooooooooooooooooooooo",
"ooooooooooooooooooooooooooooooooooooooookk<<<>>>OO%554%%*8oooooooooooooooooooooooooooooooooooooo",
"ooooooooooooooooooooooooooooooooooooooookk<<<>>>>>3453%@*8oooooooooooooooooooooooooooooooooooooo",
"oooooooooooooooooooooooooooooooooooooooohk<<<<>>$>%&3%=&*-oooooooooooooooooooooooooooooooooooooo",
"oooooooooooooooooooooooooooooooooooooooohj>>>>>>#>>=88&&oooooooooooooooooooooooooooooooooooooooo",
"ooooooooooooooooooooooooooooooooooooooojj1<>>>>#@>&888&ooooooooooooooooooooooooooooooooooooooooo",
"oooooooooooooooooooooooooooooooooooooojjjg1<:OOOO..=== ooooooooooooooooooooooooooooooooooooooooo",
"oooooooooooooooooooooooooooooooooooooojjg21::OOO...=== ooooooooooooooooooooooooooooooooooooooooo",
"ooooooooooooooooooooooooooooooooooooool<111>OOOO....OOoooooooooooooooooooooooooooooooooooooooooo",
"ooooooooooooooooooooooooooooooooooooooll<<OOOOOO....O::ooooooooooooooooooooooooooooooooooooooooo",
"ooooooooooooooooooooooooooooooooooooozkj21>OO......O+::ooooooooooooooooooooooooooooooooooooooooo",
"ooooooooooooooooooooooooooooooooooooozkh21>:O......O++::oooooooooooooooooooooooooooooooooooooooo",
"oooooooooooooooooooooooooooooooooooooxxkj22:O.OOO..O++::oooooooooooooooooooooooooooooooooooooooo",
"oooooooooooooooooooooooooooooooooooooxxkh2,OO.OO:..OO++:oooooooooooooooooooooooooooooooooooooooo",
"oooooooooooooooooooooooooooooooooooo1zzjhg,O..O:+OO.O++::ooooooooooooooooooooooooooooooooooooooo",
"ooooooooooooooooooooooooooooooooooozggkj<g>O..:::+O.OO++:ooooooooooooooooooooooooooooooooooooooo",
"ooooooooooooooooooooooooooooooooooohxkhg2>:O.Oo::+O..O++:ooooooooooooooooooooooooooooooooooooooo",
"ooooooooooooooooooooooooooooooooooo2hhg2>:OO.oo:::O..O++::oooooooooooooooooooooooooooooooooooooo",
"ooooooooooooooooooooooooooooooooooo:212<>:O.Oooo:O::.OOOO+oooooooooooooooooooooooooooooooooooooo",
"oooooooooooooooooooooooooooooooooo::+O::OO..oooo,:OOOOOO++oooooooooooooooooooooooooooooooooooooo",
"oooooooooooooooooooooooooooooooooo::+.OOO..ooooo,,:OOOOO+:oooooooooooooooooooooooooooooooooooooo",
"oooooooooooooooooooooooooooooooo::.:++  ..ooooooo,,::OOOOOoooooooooooooooooooooooooooooooooooooo",
"oooooooooooooooooooooooooooooooo:+:..    ooooooooo   .....oooooooooooooooooooooooooooooooooooooo",
"oooooooooooooooooooooooooooooooo:+OO    oooooooooo+::O    oooooooooooooooooooooooooooooooooooooo",
"oooooooooooooooooooooooooooooooo:+O    oooooooooooo+..    oooooooooooooooooooooooooooooooooooooo",
"oooooooooooooooooooooooooooooooo O     oooooooooooo+.     oooooooooooooooooooooooooooooooooooooo",
"oooooooooooooooooooooooooooooooo        oooooooooo::+OOO  oooooooooooooooooooooooooooooooooooooo",
"ooooooooooooooooooooooooooooooooo        ooooooooo:::+..   ooooooooooooooooooooooooooooooooooooo",
"oooooooooooooooooooooooooooooooooo       ooooooooo::::OOO.  oooooooooooooooooooooooooooooooooooo",
"ooooooooooooooooooooooooooooooooooooooooooooooooooo ::+++O.. ooooooooooooooooooooooooooooooooooo",
"ooooooooooooooooooooooooooooooooooooooooooooooooooooo+++++O. ooooooooooooooooooooooooooooooooooo"
};
