/* XPM */
static char *_fa53e95e1154c7bec6b4bbd71cea955ALbSVIfvpaEBw2BG[] = {
/* columns rows colors chars-per-pixel */
"128 128 22 1 ",
"  c #000001",
". c gray23",
"X c #005B5B",
"o c #006F6F",
"O c #007373",
"+ c #007777",
"@ c #007B7B",
"# c #007F7F",
"$ c #4B4B4B",
"% c gray34",
"& c #008787",
"* c #008F8F",
"= c #009B9B",
"- c #009F9F",
"; c #00A7A7",
": c #23B3B3",
"> c #23B7B7",
", c #4BC3C3",
"< c #77CBCB",
"1 c #9FDFDF",
"2 c #BBEBEB",
"3 c #DBF7F7",
/* pixels */
"................................................................................................................................",
"................................................................................................................................",
"..Oooooooooooooooooooooooooooooooooooooooooooooooooooooooo            Oooooooooooooooooooooooooooooooooooooooooooooooooooooooo$.",
"..O+++++++++++++++++++++++++++++++++++++++++++++++++++++++            O+++++++++++++++++++++++++++++++++++++++++++++++++++++++$.",
"..O@@@@@@@@@@@@@@@@@@@@@@@@@@@@@@@@@@@@@@@@@@@@@@@@@@@@@@+            O@@@@@@@@@@@@@@@@@@@@@@@@@@@@@@@@@@@@@@@@@@@@@@@@@@@@@@+$.",
"..O&&&&&&#:,&&&&&&&&&&&&&&&&&&&&&&&&&&&&&&&&&&&&&&&#:,&&&@            O&&&&&&#:,&&&&&&&&&&&&&&&&&&&&&&&&&&&&&&&&&&&&&&&#:,&&&@$.",
"..O&&&&&#+*;&&&&&&&&&&&&&&&&&&&&&&&&&&&&&&&&&&&&&&#+*;&&&@            O&&&&&#+*;&&&&&&&&&&&&&&&&&&&&&&&&&&&&&&&&&&&&&&#+*;&&&@$.",
"..O====*#+o#=====================================*#+o#***&            O====*#+o#=====================================*#+o#===&..",
"..O;;;;*###*;;;;;;;;;;;;;;;;;;;;;;;;;;;;;;;;;;;;;*###****&            O;;;;*###*;;;;;;;;;;;;;;;;;;;;;;;;;;;;;;;;;;;;;*###*;;;&..",
"..O;;;;=***=;;;;;;;;;;;;;;;;;;;;;;;;;;;;;;;;;;;;;=***=***&            O;;;;=***=;;;;;;;;;;;;;;;;;;;;;;;;;;;;;;;;;;;;;=***=;;;&..",
"..O::::::::::::::::::::::::::::::::::::::::::::;;==*******            O::::::::::::::::::::::::::::::::::::::::::::::::::::::=..",
"..O:::::::::::::::::::::::::::::::::::::::::::;;==********            O::::::::::::::::::::::::::::::::::::::::::::::::::::::=..",
"..O::::::::::::::=oXXXXXXXXXXXXXXXXXXXXXXXXO:;;==*********            O::::::::::::::=oXXXXXXXXXXXXXXXXXXXXXXXXO:::::::::::::=..",
"..O::::::::::::::,=XXXXXXXXXXXXXXXXXXXXXXXXO;;==**********            O::::::::::::::,=XXXXXXXXXXXXXXXXXXXXXXXXO:::::::::::::=..",
"..O::::::::::::::,,#&###@@@OO@++oOOOOOO++@XO;==***********            O::::::::::::::,,*******======::::::::::XO:::::::::::::=..",
"..@::::::::::::::,,###@#@@OO+++ooOOOO++++@XO==************            @::::::::::::::,,:::>>>,>,,,,<<<<<<1111,XO:::::::::::::=..",
"..@::::::::::::::,,###@@@OO@++oOOO+++++@@@XO=*************            @::::::::::::::,,:>>>>,,>,,,<<<<<1<1111,XO:::::::::::::=..",
"..O::::::::::::::,,###@@OO@++OOOOO+O++@++@XO************==            O::::::::::::::,,:>>>>,>,,,,,<<<<<<11111XO:::::::::::::=..",
"..O::::::::::::::,,#@@@OO++++OOOOO++++++@@XO***********===            O::::::::::::::,,>>>>>,,,,<,<<<<11111111XO:::::::::::::=..",
"..O::::::::::::::,,@@@OO@+++OOO+O++++@@@@#XO**********==;=            O::::::::::::::,,>>,,,,,,<<<<<1111112221XO:::::::::::::=..",
"..O::::::::::::::,,@@OO@++OOOO++O++@+@@@@#XO*********==;;=            O::::::::::::::,,>>,>,,,,<<<<1<<11112121XO:::::::::::::=..",
"..O::::::::::::::,,@OO++++OOOOOO++@++@@@@#XO********==;;:=            O::::::::::::::,,>>,,,,,,<<<<1<111112221XO:::::::::::::=..",
"..O::::::::::::::,,OO++++OOOOO++++@+@@##@#XO*******==;;::=            O::::::::::::::,,>,,,,<<<<<<111112122221XO:::::::::::::=..",
"..O::::::::::::::,,O@++OOOO+++++@@@@@@###&XO******==;;:::=            O::::::::::::::,,>,,,,<<<<1<11112212222,XO:::::::::::::=..",
"..O::::::::::::::,,@++++OOO+O++@++@@@####&XO*****==;;::::=            O::::::::::::::,,,,,,,<<<<<<11111122221,XO:::::::::::::=..",
"..O::::::::::::::,,+++OOOOO++++++@@@#####&XO****==;;::::;=            O::::::::::::::,,,,<,<<<<11111112222211,XO:::::::::::::=..",
"..O::::::::::::::,,+OOOO++++++@@@@@###&#&&XO***==;;::::;-=            O::::::::::::::,,,<<<<<1<11112222222111,XO:::::::::::::=..",
"..O:::::::::::::;,,OOOO++O++@+@@@####&&#&&X@**==;;::::;-;=            O::::::::::::::,,,,<<<1<<1111212222121<>X@:::::::::::::=..",
"..O::::::::::::;;,,OOOOOO+++++@@@##@###&&&X@*==;;::::;-;:=            O::::::::::::::,,,<<<<1<11111222221121<=X@:::::::::::::=..",
"..O:::::::::::;;=,,OO+O++++@@@@@#####&&&&*XO==;;::::;-;::=            O::::::::::::::,,<<<1111112222222111111=XO:::::::::::::=..",
"..O::::::::::;;==,,O++O++@@@@@####&&&&&&**XO=;;::::;-;:::=            O::::::::::::::,,<<1<<111221222222111<<=XO:::::::::::::=..",
"..O:::::::::;;==*,,O+O++@++@@@####&#&&&&&*XO;;::::;-;::::=            O::::::::::::::,,<<<<11111122211111<<<<=XO:::::::::::::=..",
"..O::::::::;;==**,,O++++@+@@@@####&&&&&***XO;::::;-;:::::=            O::::::::::::::,,<1111121222221111<1<<,*XO:::::::::::::=..",
"..O:::::::;;==***,,++++@@@@##@#&&&&&&***==Xo::::;--;:::::=            O::::::::::::::,,<1111221222222111<<<<<*Xo:::::::::::::=..",
"..O::::::;;==****,,++@+@@@@##@&&#&&&&****=Xo:::;--;::::::=            O::::::::::::::,,<11112122221111<<<<<,,*Xo:::::::::::::=..",
"..O:::::;;==*****,,++++@@@######&&&&******Xo::;--;:::::::=            O::::::::::::::,,1111122222111<<1<<,<,,*Xo:::::::::::::=..",
"..O::::;;==******,,+@@@@####&#&&&&***=====Xo:;--;::::::::=            O::::::::::::::,,112222222222111<<<<<,,*Xo:::::::::::::=..",
"..O:::;;==*******,,@@@@@###&&#&&&*****===;Xo;--;:::::::::=            O::::::::::::::,,1221222111111<<<<,,,,,&Xo:::::::::::::=..",
"..O::;;==********,,+@@@@###&#&&&&*=**====;Xo--;::::::::::=            O::::::::::::::,,1112222111<<1<<,,,,,,>*Xo:::::::::::::=..",
"..O:;;==*********,,@@@#@###&&&&*&*=*=====;Xo-;:::::::::::=            O::::::::::::::,,1222222121<1<<,<<,,,,>&Xo:::::::::::::=..",
"..O;;==**********,,@@###&&&&&&*****===;;;;Xo;::::::::::::=            O::::::::::::::,,1222211111<<<<,<,,,,,>&Xo:::::::::::::=..",
"..@;==***********,,@###&&#&&&&*=**=*=;;=;;Xo:::::::::::::=            @::::::::::::::,,2222121<<<<<<,,,,,>,>:&Xo:::::::::::::=..",
"..@==************,,######&&&&&***======;;;Xo:::::::::::::=            @::::::::::::::,,2221121<1<<,<,,,,>>,>:&Xo:::::::::::::=..",
"..O=************=,<##&#&&&&*****===;=;;;;:Xo:::::::::::::=            O::::::::::::::,<22111111<<<<<,,,,>>>>>&Xo:::::::::::::=..",
"..O************==<1#&&#&&&**=*====;;=;;;::Xo:::::::::::::=            O::::::::::::::<12121<1<<<<,,,,,,,>:>>:&Xo:::::::::::::=..",
"..O***********==;11###&&&&&***====;=;;;;;:Xo:::::::::::::=            O::::::::::::::111121<1<<,,,,,,>>>>:>::&Xo:::::::::::::=..",
"..O**********==;;11#&&&&******====;;;;:;::Xo:::::::::::::=            O::::::::::::::1111111<<,<<,,,,>,>>>:::#Xo:::::::::::::=..",
"..o*********==;;:22&&&&**======;;;;;;::::>Xo:::::::::::::=            o::::::::::::::22111<<<<,<,,,,,>>>>>::;#Xo:::::::::::::=..",
"..o********==;;::22&&&&&***===;;=;;;;::::>Xo:::::::::::::=            o::::::::::::::221<<<<,,,,,,>>>>:::::;;#Xo:::::::::::::=..",
"..o*******==;;:::22&&&****======;;;;;::::>XX:::::::::::::=            o::::::::::::::22<1<<,<<,,,>>>:>>::::;;#XX::::::::::::;=..",
"..o******==;;::::22&***=====;=;;;;::::>>>>XX:::::::::::::=            o::::::::::::::22<<<<<<,,,,,,>>>>::::;;#XX:::::::::::;;=..",
"..o*****==;;:::::22&****===;;=;;;:::::>>>>XX:::::::::::::=            o::::::::::::::22<<<,,,,,>,>>>::::;;;;;#XX::::::::::;;==..",
"..o****==;;::::::22******====;;;;;:::::>>>XX:::::::::::::=            o::::::::::::::22<,<,,,,>>,:>>:::;;;;;=#XX:::::::::;;==*..",
"..o***==;;:::::::22*=======;;;;:;:::>>>>,,XX:::::::::::::=            o::::::::::::::22,<<,,,,>,>>>>::::;;;;;#XX::::::::;;==**..",
"..o**==;;::::::::11**===;;;;;;:::::>>>,>,,XX:::::::::::::=            o::::::::::::::11,<,,,,>>>>::::;:;;;;==#XX:::::::;;==***..",
"..o*==;;:::::::::1<*====;=;;;;;:::>:>,>>,,XX:::::::::::::=            o::::::::::::::1<,,,,>>>:>>:::;;;;;====#XX::::::;;==****..",
"..o==;;::::::::::<<=====;;;;;;:::>>:>,>,,,XX:::::::::::::=            o::::::::::::::<<,,,>>,>:>>::::;;;=;;==#XX:::::;;==*****..",
"..o=;;:::::::::::<<*=;=;;;;:::::>>>>>,,,,<XX:::::::::::::=            o::::::::::::::<<,,,,,>>::::::;;;;=;===OXX::::;;==******..",
"..o;;::::::::::::<<==;=;;;;:::>>:>,>>,,,<<XX:::::::::::::=            o::::::::::::::<<,>,>:>>:::;;;;;======*#XX:::;;==*******..",
"..o;:::::::::::::<<==;;;;;;:::>>:>,>,,,,,,XX:::::::::::::=            o::::::::::::::<<>>,>:>::::;;;;=;;=*=**OXX::;;==********..",
"..o::::::;13:::::<<=;;;;:;::::>>>,,,,,<,<<XX:::::::;13:::=            o::::::;13:::::<<>>>>>:::::;;;;;;===***oXX:;;==&&#:,****..",
"..o::::::*>1:::::<<=;;;;:::>>:>,>,,,,<<,<<XX:::::::*>1:::=            o::::::*>1:::::<<>:>>:::;:;;;;=====*=*&oXX;;==*&#o*;****..",
"..o:::::;#*=:::::<<;;;;;:::>>:>>>,,,,,,<<1XX::::::;#*=:::=            o:::::;#*=:::::<<>:>:::;;;;;=;====**=*&oXX;==***#oo#****..",
"..X::::;;=*;:::::<<;;:;::>:>>>>,,,,,,<<<<1XX:::::;;=*;:::=            X::::;;=*;:::::<<>>:::::;;;=;;===*****&oXX==****###*****..",
"..X:::::;;;::::::<<;:::::>>>,,,,,,<<<<<111XX::::::;;;::::=            X:::::;;;::::::<<:>::;:;;;;=;=====***&&oXX=************=..",
"..X::::::::::::::<<;;:::>:>>>>,,,,<,<<1<<1XX:::::::::::::=            X::::::::::::::<<:::;;;;;=====*****&&&&oXX************==..",
"..X::::::::::::::<<;:::>>:>,,,,,,,<<<<<111XX:::::::::::::=            X::::::::::::::<<:::;;;;=;;===****&&&&#oXX***********===..",
"..X::::::::::::::<<:::>>>>>,,,,<,<<<<11122XX:::::::::::::=            X::::::::::::::<<:;:;;;;=;======**&&&&&oXX**********==;=..",
"..X::::::::::::::<<::>:>,>>,,,,<,<<1<11112XX:::::::::::::=            X::::::::::::::<<;;;;;;=====*****&&&&##oXX*********==;;=..",
"..X::::::::::::::<<:>>:>,>,,,,,<<<1<111112XX:::::::::::::=            X::::::::::::::<<;;;;=;====***&&&&&#&##oXX********==;;:=..",
"..X::::::::::::::<<:>>,,,,,,<,<<<<1<122222XX:::::::::::::=            X::::::::::::::<<;;;;=;=*====**&&&#&&##oXX*******==;;::=..",
"..X::::::::::::::<<:>,>>,,,<<,<<1<11112222XX:::::::::::::=            X::::::::::::::<<;;;=====*****&&&&#&###oXX******==;;:::=..",
"..X::::::::::::::<<:>>>,,,,,,<<1<<11122222XX:::::::::::::=            X::::::::::::::<<;=;====***&&&&&###@@#@oXX*****==;;::::=..",
"..X::::::::::::::<<>>,,,,<,<<<<11111222212XX:::::::::::::=            X::::::::::::::<<;;;===****&&&&#&&###@@oXX****==;;::::;=..",
"..X::::::::::::::<<>,,,,<<,<<1112222222122XX:::::::::::::=            X::::::::::::::<<=======*&*&&&&#&###@@@oXX***==;;::::;-=..",
"..X::::::::::::::<<>,,,,<,<<1<<11122222121XX:::::::::::::=            X::::::::::::::<<==******&&&&&#####@@@+oXX**==;;::::;-;=..",
"..X::::::::::::::<<,,,,,<<<<11111222212111XX:::::::::::::=            X::::::::::::::<<===****&&&&#&####@@@++oXX*==;;::::;-;:=..",
"..X::::::::::::::<<,,<<<<<<112222222122111XX:::::::::::::=            X::::::::::::::<<====***&&&&#&###@@@@@@oXX==;;::::;-;::=..",
"..X::::::::::::::<<,<<,<<1<111122222121111XX:::::::::::::=            X::::::::::::::<<=****&&&&&####@#@@+@++oXX=;;::::;-;:::=..",
"..X::::::::::::::<<,,,<<<<11111222111111<<XX:::::::::::::=            X::::::::::::::<<***&&&&&#&####@@@++@++oXX;;::::;-;::::=..",
"..X::::::::::::::<<,<<<<111222222122111<<1XX:::::::::::::=            X::::::::::::::<<==**&&&&&&####@@@+@++OoXX;::::;-;:::::=..",
"..X::::::::::::::<<,<<1111112222212111111<XX:::::::::::::=            X::::::::::::::<<***&&&&#####@@@+@++++OoXX::::;--;:::::=..",
"..X::::::::::::::<<<<1<12112222211111<1<<<XX:::::::::::::=            X::::::::::::::<<&&&&&###@##@@@++@+++OOoXX:::;--;::::::=..",
"..X::::::::::::::<<<<1<1212222121111<<1<<<XX:::::::::::::=            X::::::::::::::<<*&&&#&&####@@@+@++O+OOoXX::;--;:::::::=..",
"..X::::::::::::::<<1111112222222111111<<<<XX:::::::::::::=            X::::::::::::::<<&&&&#&###@@@@@++++O+OOoXX:;--;::::::::=..",
"..X::::::::::::::<<<1211222221111111<<<<,<XX:::::::::::::=            X::::::::::::::<<&&######@@@++++++OOOOOoXX;--;:::::::::=..",
"..X::::::::::::::<<<1212222111111<<<<<<,,,XX:::::::::::::=            X::::::::::::::<<&#&&###@@@++@++O+OOOO+oXX--;::::::::::=..",
"..X::::::::::::::<<11122221221111<1<<<<<,,XX:::::::::::::=            X::::::::::::::<<&&&###@@@@@@+++++OOOO+oXX-;:::::::::::=..",
"..X::::::::::::::<<12222221211111<<<<<<,,,XX:::::::::::::=            X::::::::::::::<<###@#@@@+@++++OOOOO+++oXX;::::::::::::=..",
"..X::::::::::::::<<12222111111<1<<<<,,,,,>XX:::::::::::::=            X::::::::::::::<<###@@@@++@++OOOOO+++++oXX:::::::::::::=..",
"..X::::::::::::::<<1222122111<<1<<<<,,,,>,XX:::::::::::::=            X::::::::::::::<<###@@@@@@++O++OOOO++@OoXX:::::::::::::=..",
"..X::::::::::::::<<222222111111<<<<<,,,,,,XX:::::::::::::=            X:::::::::::::;<<###@@@@++++O+OOOO+++OOoXX:::::::::::::=..",
"..X::::::::::::::<<22211111<1<<<<,<,,,,>>>XX:::::::::::::=            X::::::::::::;;<<#@@@+++++OOOOOO++++OO@oXX:::::::::::::=..",
"..X::::::::::::::<<2121111<<1<<<,,,,,>,>>>XX:::::::::::::=            X:::::::::::;;=<<@@@@+@++O++OOOO++@OO@@oXX:::::::::::::=..",
"..X::::::::::::::<<1221111<1<<<<<,,,>,,>>>XX:::::::::::::=            X::::::::::;;==<<@@@@++++++OOOO++@OO@@@oXX:::::::::::::=..",
"..X::::::::::::::<<1211111<<<<,<,,,,>,>>>:XX:::::::::::::=            X:::::::::;;==*<<@+@++++OOOOO++++OO@@@@oXX:::::::::::::=..",
"..X::::::::::::::<<1111<<<<<<,,,,,>>>>>>::XX:::::::::::::=            X::::::::;;==**<<++@++O+OOOO++++OO@@##@oXX:::::::::::::=..",
"..X::::::::::::::<<111<<1<<<<,,,,>,,>>>::>XX:::::::::::::=            X:::::::;;==***<<@@++O++OOOO++@OO@@@##@oXX:::::::::::::=..",
"..X::::::::::::::<<11111<<<<<,,,,>,>>>::::XX:::::::::::::=            X::::::;;==****<<++++O+OOOO+++OO@@@####oXX:::::::::::::=..",
"..X::::::::::::::<<1<1<<<<,,,,,,>>>>>:>:::XX:::::::::::::=            X:::::;;==*****<<++OOOOOO++++OO@@####&#oXX:::::::::::::=..",
"..X::::::::::::::<<<<1<<<,,,,,>,>>>>::>:::XX:::::::::::::=            X::::;;==******<<+O++OOOO++@OO@@@###&&#oXX:::::::::::::=..",
"..X::::::::::::::<<<1<<<<<,,,,,,>>>::::::;XX:::::::::::::=            X:::;;==*******<<+++OOOO++@OO@@@@###&#&oXX:::::::::::::=..",
"..X::::::::::::::<<<<<<,<,,,,>>>>>>>:::;;:XX:::::::::::::=            X::;;==********<<OOOOO++++OO@@@#@###&&&oXX:::::::::::::=..",
"..X::::::::::::::<<<<<,,,,,>>>>>>:::;::;;=XX:::::::::::::=            X:;;==*********<<OOO++++@OO@@@###&&&&&&oXX:::::::::::::=..",
"..X::::::::::::::<<<<<,,,,>,,>>>::::;:;;;;XX:::::::::::::=            X;;==**********<<OOOO++@OO@@@###&&#&&&&OXX:::::::::::::=..",
"..X::::::::::::::<<<<<,,,,>,>>>>>:::;:;;;;XX:::::::::::::=            X;==***********<<OO++++OO@@@######&&&&&OXX:::::::::::::=..",
"..X::::::::::::::<<,,,,,,>>>>>::::::;;;===XX:::::::::::::=            X==************<<O++++OO@@@###&#&&&&***OXX:::::::::::::=..",
"..X::::::::::::::<<,,,,>,>>>>::::;:;;;;===XX:::::::::::::=            X=************=<<O++@OO@@####&&#&&&**=*OXX:::::::::::::=..",
"..X::::::::::::::<<,,,,,,>>>>>>:::::;;;===XX:::::::::::::=            X************==<<++@OO@@@##@###&&&&&***#XX:::::::::::::=..",
"..X::::::::::::::<<,,,>>>>>:::;::;;;=;====XX:::::::::::::=            X***********==;<<++OO@@@#####&&&&******OXX:::::::::::::=..",
"..X::::::::::::::<<,>,>>>>::::;:;;;;====**XX:::::::::::::=            X**********==;;<<@OO@@####&&&&&&**=====#XX:::::::::::::=..",
"..X::::::::::::::<<>,,>>>>:>::::;=;;====*=XX:::::::::::::=            X*********==;;:<<OO@@@####&#&&&&&***===#XX:::::::::::::=..",
"..X::::::::::::::<<>,>>>::::::;;;=;=====**XX:::::::::::::=            X********==;;::<<O@@#@####&&&&&****====#XX:::::::::::::=..",
"..X::::::::::::::<<>>>>::::;;;;;;====*=***XX:::::::::::::=            X*******==;;:::<<@@@###&#&&&&***=====;=#XX:::::::::::::=..",
"..X::::::::::::::<<>>>::>::::;=;;===**=***XX:::::::::::::=            X******==;;::::<<@@####&#&&&&****===;;=#XX:::::::::::::=..",
"..X::::::::::::::<<<<<<<<<<<<<<<<<<<<<<<>>@X:::::::::::::=            X*****==;;:::::<<<<<<<<<<<<<<<<<<<<<<<>>@X:::::::::::::=..",
"..X::::::;13:::::<<<<<<<<<<<<<<<<<<<<<<<>>=@:::::::;13:::=            X****==;13:::::<<<<<<<<<<<<<<<<<<<<<<<>>=@:::::::;13:::=..",
"..X::::::*>1:::::::::::::::::::::::::::::::::::::::*>1:::=            X***==;*>1:::::::::::::::::::::::::::::::::::::::*>1:::=..",
"..X:::::;#*=::::::::::::::::::::::::::::::::::::::;#*=:::=            X**==;;#*=::::::::::::::::::::::::::::::::::::::;#*=:::=..",
"..X::::;;=*;:::::::::::::::::::::::::::::::::::::;;=*;:::=            X*==;;;=*;:::::::::::::::::::::::::::::::::::::;;=*;:::=..",
"..X:::::;;;:::::::::::::::::::::::::::::::::::::::;;;::::=            X==;;;;;;:::::::::::::::::::::::::::::::::::::::;;;::::=..",
"..X::::::::::::::::::::::::::::::::::::::::::::::::::::::=            X=;;:::::::::::::::::::::::::::::::::::::::::::::::::::=..",
"..X::::::::::::::::::::::::::::::::::::::::::::::::::::::=            X;;::::::::::::::::::::::::::::::::::::::::::::::::::::=..",
"..X;:::::::::::::::::::::::::::::::::::::::::::::::::::::=            X;:::::::::::::::::::::::::::::::::::::::::::::::::::::=..",
"$$X::::::::::::::::::::::::::::::::::::::::::::::::::::::=            X::::::::::::::::::::::::::::::::::::::::::::::::::::::=$$",
"$$X::::::::::::::::::::::::::::::::::::::::::::::::::::::*            X::::::::::::::::::::::::::::::::::::::::::::::::::::::*$$",
"%%%%%%%%%%%%%%%%%%%%%%%%%%%%%%%%%%%%%%%%%%%%%%%%%%%%%%%%$$........... .$$%%%%%%%%%%%%%%%%%%%%%%%%%%%%%%%%%%%%%%%%%%%%%%%%%%%%%%%",
"%%%%%%%%%%%%%%%%%%%%%%%%%%%%%%%%%%%%%%%%%%%%%%%%%%%%%%%%$$............$$%%%%%%%%%%%%%%%%%%%%%%%%%%%%%%%%%%%%%%%%%%%%%%%%%%%%%%%%"
};
