/* XPM */
static char *_67c9f18a2784331ad3a6d0d3f85068cTLsiDiQTpMTuuSyM[] = {
/* columns rows colors chars-per-pixel */
"64 64 21 1 ",
"  c None",
". c gray11",
"X c #202020",
"o c #282828",
"O c #2C2C2C",
"+ c gray22",
"@ c #403018",
"# c #483818",
"$ c #543C1C",
"% c #5C4020",
"& c #6C4824",
"* c #744C28",
"= c gray25",
"- c #484848",
"; c #4C4C4C",
": c gray33",
"> c gray36",
", c #646464",
"< c gray44",
"1 c #7C7C7C",
"2 c white",
/* pixels */
"111#$%%*%%%%%%%%%%%%%%$@#%%%%$$#:,11<<<<OOOOOOO-,<:,::;;;;:>>,<1",
"1<<:# %*%%%%%%%$%%%%%%$@#%%%$##:,11<1<11-OOOOO-,<:,:;;::>,,,,,,<",
"<<   2                                                        ,,",
":<  2                                                         ;;",
";: 2                                                          >>",
";;                                                  2         ;;",
";;                   2                                        ;;",
";;                  2 2                                       ;;",
";;                 2 2                                        ;;",
";;                2 2                                         ;;",
";;               2 2                         2                ;;",
";;            2 2 2                         2                 ;-",
";;           2 2 2                         2                  ;;",
";;            2 2                         2                   ;;",
";;           2                           2                    ;;",
";-                                                            ;-",
"-+         2                             2                    -+",
"+,        2                                                   +=",
",,       2 2                                         2        ==",
",-      2 2                                         2         =,",
"-$       2                                         2          ,,",
"$%      2                                         2           1-",
"%#                                                            -$",
"##                            2                 2             $%",
"##                           2                                %#",
"##                          2                   2             ##",
"#$                         2                   2              ##",
"#$                        2                   2               ##",
"##                       2                   2                ##",
"##                                                            $$",
"##                       2                                    $$",
"##                      2                   2                 $$",
"##                     2                   2                  ##",
"##                    2                   2                   ##",
"##                   2                   2                    ##",
"##                  2                   2                     ##",
"##                 2                   2                      ##",
"##                                                            ##",
"#@                                                            ##",
"@-                2                   2                       @@",
"-,               2                   2                        --",
",,              2                   2                         ,,",
",1                                 2                          +:",
"O-                                                            XO",
"OX             2                                         2    XO",
"OX            2                                               XO",
"X-           2                                           2    OO",
"-,          2                                                 OO",
",<         2                                                  XX",
"11        2                                         2         --",
"1<       2                                         2          11",
"1:                                                2           ,1",
"&&       2                                       2            ,1",
"%%                                              2             ,1",
"%$     2                                       2              ,&",
"%%                                            2               ,&",
"%%     2                                     2                &%",
"%%    2                                                       &%",
"%%   2                                     2                  %%",
"%%                                                            %%",
"%%                                                            %%",
"%%                                                            %%",
"%%%%%$#@:1:===:1:##$%#####@-,+OOO+OOOOooOOOoX.XOXXoOOX:1;;,&%%%%",
"%%%%$@@:11=====:,##$#####@-:,OOOO+OOoOOOOOOoX.XOoXXoOX:11,,&%%%%"
};
